<svg width="110" height="41" viewBox="0 0 110 41" fill="none" xmlns="http://www.w3.org/2000/svg">
<g filter="url(#filter0_b_672_245)">
<mask id="path-1-outside-1_672_245" maskUnits="userSpaceOnUse" x="4.40039" y="13.8521" width="102" height="27" fill="black">
<rect fill="white" x="4.40039" y="13.8521" width="102" height="27"/>
<path d="M4.40039 13.8521H105.467V40.0001H4.40039V13.8521Z"/>
</mask>
<path d="M4.40039 13.8521H105.467V40.0001H4.40039V13.8521Z" fill="url(#paint0_linear_672_245)"/>
<path d="M105.467 39.5001H4.40039V40.5001H105.467V39.5001Z" fill="black" mask="url(#path-1-outside-1_672_245)"/>
<path d="M105.467 39.5001H4.40039V40.5001H105.467V39.5001Z" fill="white" fill-opacity="0.75" mask="url(#path-1-outside-1_672_245)"/>
<path d="M19.3429 24.4871L18.9503 24.3498L19.2735 24.0611C28.7206 15.6232 32.0735 11.8905 33.3828 7.62857C33.4264 7.48687 33.4694 7.36835 33.5122 7.27489C33.5506 7.19118 33.6038 7.0931 33.6813 7.02732C33.7241 6.99105 33.7948 6.94734 33.8872 6.94717C33.9836 6.947 34.0537 6.99405 34.0959 7.03862C34.1672 7.11396 34.1974 7.22065 34.2139 7.29515C34.2514 7.46464 34.2666 7.71705 34.2641 8.02298C34.2617 8.33404 34.2408 8.71685 34.1995 9.15577C34.0345 10.9092 33.5403 13.6 32.558 16.2739C31.5774 18.9433 30.0986 21.6278 27.9461 23.3317C25.7762 25.0493 22.9495 25.7478 19.3429 24.4871Z" fill="url(#paint1_linear_672_245)"/>
<path d="M19.3429 24.4871L18.9503 24.3498L19.2735 24.0611C28.7206 15.6232 32.0735 11.8905 33.3828 7.62857C33.4264 7.48687 33.4694 7.36835 33.5122 7.27489C33.5506 7.19118 33.6038 7.0931 33.6813 7.02732C33.7241 6.99105 33.7948 6.94734 33.8872 6.94717C33.9836 6.947 34.0537 6.99405 34.0959 7.03862C34.1672 7.11396 34.1974 7.22065 34.2139 7.29515C34.2514 7.46464 34.2666 7.71705 34.2641 8.02298C34.2617 8.33404 34.2408 8.71685 34.1995 9.15577C34.0345 10.9092 33.5403 13.6 32.558 16.2739C31.5774 18.9433 30.0986 21.6278 27.9461 23.3317C25.7762 25.0493 22.9495 25.7478 19.3429 24.4871Z" stroke="black" stroke-width="0.5"/>
<path d="M19.3429 24.4871L18.9503 24.3498L19.2735 24.0611C28.7206 15.6232 32.0735 11.8905 33.3828 7.62857C33.4264 7.48687 33.4694 7.36835 33.5122 7.27489C33.5506 7.19118 33.6038 7.0931 33.6813 7.02732C33.7241 6.99105 33.7948 6.94734 33.8872 6.94717C33.9836 6.947 34.0537 6.99405 34.0959 7.03862C34.1672 7.11396 34.1974 7.22065 34.2139 7.29515C34.2514 7.46464 34.2666 7.71705 34.2641 8.02298C34.2617 8.33404 34.2408 8.71685 34.1995 9.15577C34.0345 10.9092 33.5403 13.6 32.558 16.2739C31.5774 18.9433 30.0986 21.6278 27.9461 23.3317C25.7762 25.0493 22.9495 25.7478 19.3429 24.4871Z" stroke="white" stroke-opacity="0.75" stroke-width="0.5"/>
<path d="M31.0234 16.6488L31.0235 16.6488L31.0205 16.6538C30.2135 18.0123 29.5191 18.9185 28.6448 19.6915C28.6447 19.6916 28.6447 19.6916 28.6447 19.6916L28.6352 19.7L28.6351 19.7C28.1327 20.1431 27.5755 20.5384 26.912 20.9496L26.6524 20.5318L28.3391 19.3078C29.1504 18.5884 29.8081 17.7374 30.5922 16.419L32.4735 12.2286L32.9328 12.3946C32.4622 13.8595 31.8751 15.142 31.0234 16.6488Z" stroke="black" stroke-width="0.5"/>
<path d="M31.0234 16.6488L31.0235 16.6488L31.0205 16.6538C30.2135 18.0123 29.5191 18.9185 28.6448 19.6915C28.6447 19.6916 28.6447 19.6916 28.6447 19.6916L28.6352 19.7L28.6351 19.7C28.1327 20.1431 27.5755 20.5384 26.912 20.9496L26.6524 20.5318L28.3391 19.3078C29.1504 18.5884 29.8081 17.7374 30.5922 16.419L32.4735 12.2286L32.9328 12.3946C32.4622 13.8595 31.8751 15.142 31.0234 16.6488Z" stroke="white" stroke-opacity="0.75" stroke-width="0.5"/>
<path d="M82.7951 12.1116L82.5873 11.7818L82.9956 11.7188C88.3164 10.898 91.8171 10.9543 94.037 12.3158C96.2773 13.6899 97.1461 16.3459 97.3646 20.4922L97.3768 20.7238L97.1432 20.7725C94.1809 21.3902 91.8734 21.2966 89.6555 19.9848C87.4559 18.6839 85.3698 16.1987 82.7951 12.1116Z" fill="url(#paint2_linear_672_245)"/>
<path d="M82.7951 12.1116L82.5873 11.7818L82.9956 11.7188C88.3164 10.898 91.8171 10.9543 94.037 12.3158C96.2773 13.6899 97.1461 16.3459 97.3646 20.4922L97.3768 20.7238L97.1432 20.7725C94.1809 21.3902 91.8734 21.2966 89.6555 19.9848C87.4559 18.6839 85.3698 16.1987 82.7951 12.1116Z" stroke="black" stroke-width="0.5"/>
<path d="M82.7951 12.1116L82.5873 11.7818L82.9956 11.7188C88.3164 10.898 91.8171 10.9543 94.037 12.3158C96.2773 13.6899 97.1461 16.3459 97.3646 20.4922L97.3768 20.7238L97.1432 20.7725C94.1809 21.3902 91.8734 21.2966 89.6555 19.9848C87.4559 18.6839 85.3698 16.1987 82.7951 12.1116Z" stroke="white" stroke-opacity="0.75" stroke-width="0.5"/>
<path d="M93.5959 17.9795L93.1679 18.2775C92.8763 17.8618 92.5881 17.3811 92.2882 16.817L92.7302 16.5419L93.5959 17.9795Z" fill="url(#paint3_linear_672_245)"/>
<path d="M93.5959 17.9795L93.1679 18.2775C92.8763 17.8618 92.5881 17.3811 92.2882 16.817L92.7302 16.5419L93.5959 17.9795Z" stroke="black" stroke-width="0.5"/>
<path d="M93.5959 17.9795L93.1679 18.2775C92.8763 17.8618 92.5881 17.3811 92.2882 16.817L92.7302 16.5419L93.5959 17.9795Z" stroke="white" stroke-opacity="0.75" stroke-width="0.5"/>
<path d="M77.4519 9.31103L77.5626 8.94267L77.1895 8.96741L77.1545 8.96973C72.7208 9.26373 69.1892 9.4979 66.5912 10.8763C63.9526 12.2762 62.3049 14.8344 61.5618 19.6663L61.5144 19.9747L61.8158 19.9758C66.1614 19.9916 69.3861 19.6599 71.8691 18.1401C74.3627 16.6137 76.0683 13.9158 77.4519 9.31103Z" fill="url(#paint4_linear_672_245)"/>
<path d="M77.4519 9.31103L77.5626 8.94267L77.1895 8.96741L77.1545 8.96973C72.7208 9.26373 69.1892 9.4979 66.5912 10.8763C63.9526 12.2762 62.3049 14.8344 61.5618 19.6663L61.5144 19.9747L61.8158 19.9758C66.1614 19.9916 69.3861 19.6599 71.8691 18.1401C74.3627 16.6137 76.0683 13.9158 77.4519 9.31103Z" stroke="black" stroke-width="0.5"/>
<path d="M77.4519 9.31103L77.5626 8.94267L77.1895 8.96741L77.1545 8.96973C72.7208 9.26373 69.1892 9.4979 66.5912 10.8763C63.9526 12.2762 62.3049 14.8344 61.5618 19.6663L61.5144 19.9747L61.8158 19.9758C66.1614 19.9916 69.3861 19.6599 71.8691 18.1401C74.3627 16.6137 76.0683 13.9158 77.4519 9.31103Z" stroke="white" stroke-opacity="0.75" stroke-width="0.5"/>
<path d="M61.9109 19.7595C62.3243 19.1811 62.7549 18.6439 63.2289 18.1315M75.7576 10.7593C75.0856 11.0516 74.4482 11.3331 73.8431 11.6053M73.9491 10.4394L72.4706 12.2325M72.4706 12.2325C72.9089 12.0287 73.366 11.8199 73.8431 11.6053M72.4706 12.2325C71.904 12.496 71.3688 12.7511 70.8625 12.9993M71.1609 10.873L69.203 13.8435M69.203 13.8435C69.7196 13.5696 70.2714 13.2891 70.8625 12.9993M69.203 13.8435C68.6252 14.1497 68.0915 14.4476 67.5959 14.7407M67.7989 11.7965L66.1376 15.6638M66.1376 15.6638C66.5851 15.3586 67.0689 15.0524 67.5959 14.7407M66.1376 15.6638C65.7025 15.9605 65.3016 16.2562 64.9287 16.5548M64.5337 13.9612L63.2289 18.1315M63.2289 18.1315C63.7354 17.5841 64.2913 17.0652 64.9287 16.5548M75.223 12.4677L73.8431 11.6053M72.9383 14.4971L70.8625 12.9993M70.1885 16.669L67.5959 14.7407M66.9861 18.0128L64.9287 16.5548" stroke="black" stroke-width="0.5"/>
<path d="M61.9109 19.7595C62.3243 19.1811 62.7549 18.6439 63.2289 18.1315M75.7576 10.7593C75.0856 11.0516 74.4482 11.3331 73.8431 11.6053M73.9491 10.4394L72.4706 12.2325M72.4706 12.2325C72.9089 12.0287 73.366 11.8199 73.8431 11.6053M72.4706 12.2325C71.904 12.496 71.3688 12.7511 70.8625 12.9993M71.1609 10.873L69.203 13.8435M69.203 13.8435C69.7196 13.5696 70.2714 13.2891 70.8625 12.9993M69.203 13.8435C68.6252 14.1497 68.0915 14.4476 67.5959 14.7407M67.7989 11.7965L66.1376 15.6638M66.1376 15.6638C66.5851 15.3586 67.0689 15.0524 67.5959 14.7407M66.1376 15.6638C65.7025 15.9605 65.3016 16.2562 64.9287 16.5548M64.5337 13.9612L63.2289 18.1315M63.2289 18.1315C63.7354 17.5841 64.2913 17.0652 64.9287 16.5548M75.223 12.4677L73.8431 11.6053M72.9383 14.4971L70.8625 12.9993M70.1885 16.669L67.5959 14.7407M66.9861 18.0128L64.9287 16.5548" stroke="white" stroke-opacity="0.75" stroke-width="0.5"/>
<path d="M50.7922 15.534L51.0054 15.1761L51.2091 15.539C55.1234 22.5133 56.9577 25.0427 59.3933 26.3381C59.4769 26.3825 59.5482 26.4252 59.6045 26.4661C59.6521 26.5007 59.7205 26.5556 59.7612 26.6328C59.7841 26.6761 59.811 26.7513 59.7912 26.842C59.7707 26.9362 59.7117 26.9938 59.6659 27.0238C59.5894 27.0739 59.5001 27.0814 59.4505 27.0837C59.225 27.0942 58.7978 27.0129 58.2732 26.8651C57.2022 26.5635 55.5944 25.9465 54.0653 25.018C52.5406 24.0922 51.0647 22.8389 50.2977 21.2514C49.5204 19.6423 49.4878 17.7232 50.7922 15.534ZM59.4519 26.5713C59.4519 26.5713 59.451 26.5714 59.4492 26.5719C59.4511 26.5716 59.452 26.5714 59.4519 26.5713Z" fill="url(#paint5_linear_672_245)"/>
<path d="M50.7922 15.534L51.0054 15.1761L51.2091 15.539C55.1234 22.5133 56.9577 25.0427 59.3933 26.3381C59.4769 26.3825 59.5482 26.4252 59.6045 26.4661C59.6521 26.5007 59.7205 26.5556 59.7612 26.6328C59.7841 26.6761 59.811 26.7513 59.7912 26.842C59.7707 26.9362 59.7117 26.9938 59.6659 27.0238C59.5894 27.0739 59.5001 27.0814 59.4505 27.0837C59.225 27.0942 58.7978 27.0129 58.2732 26.8651C57.2022 26.5635 55.5944 25.9465 54.0653 25.018C52.5406 24.0922 51.0647 22.8389 50.2977 21.2514C49.5204 19.6423 49.4878 17.7232 50.7922 15.534ZM59.4519 26.5713C59.4519 26.5713 59.451 26.5714 59.4492 26.5719C59.4511 26.5716 59.452 26.5714 59.4519 26.5713Z" stroke="black" stroke-width="0.5"/>
<path d="M50.7922 15.534L51.0054 15.1761L51.2091 15.539C55.1234 22.5133 56.9577 25.0427 59.3933 26.3381C59.4769 26.3825 59.5482 26.4252 59.6045 26.4661C59.6521 26.5007 59.7205 26.5556 59.7612 26.6328C59.7841 26.6761 59.811 26.7513 59.7912 26.842C59.7707 26.9362 59.7117 26.9938 59.6659 27.0238C59.5894 27.0739 59.5001 27.0814 59.4505 27.0837C59.225 27.0942 58.7978 27.0129 58.2732 26.8651C57.2022 26.5635 55.5944 25.9465 54.0653 25.018C52.5406 24.0922 51.0647 22.8389 50.2977 21.2514C49.5204 19.6423 49.4878 17.7232 50.7922 15.534ZM59.4519 26.5713C59.4519 26.5713 59.451 26.5714 59.4492 26.5719C59.4511 26.5716 59.452 26.5714 59.4519 26.5713Z" stroke="white" stroke-opacity="0.75" stroke-width="0.5"/>
<path d="M54.046 23.9861L54.0459 23.9861L54.0418 23.9824C53.3079 23.3126 52.8352 22.7609 52.4714 22.1047C52.4713 22.1046 52.4712 22.1045 52.4712 22.1044L52.4651 22.0934L52.4651 22.0933C52.2581 21.7181 52.0895 21.3141 51.9268 20.843L52.3782 20.6501L52.8992 21.8585C53.2243 22.4416 53.6514 22.9468 54.3517 23.5871L56.6845 25.2506L56.4334 25.688C55.584 25.2214 54.8654 24.7004 54.046 23.9861Z" stroke="black" stroke-width="0.5"/>
<path d="M54.046 23.9861L54.0459 23.9861L54.0418 23.9824C53.3079 23.3126 52.8352 22.7609 52.4714 22.1047C52.4713 22.1046 52.4712 22.1045 52.4712 22.1044L52.4651 22.0934L52.4651 22.0933C52.2581 21.7181 52.0895 21.3141 51.9268 20.843L52.3782 20.6501L52.8992 21.8585C53.2243 22.4416 53.6514 22.9468 54.3517 23.5871L56.6845 25.2506L56.4334 25.688C55.584 25.2214 54.8654 24.7004 54.046 23.9861Z" stroke="white" stroke-opacity="0.75" stroke-width="0.5"/>
<path d="M4.27437 25.8404L3.75937 26.5043L3.82589 25.666C4.47079 17.5389 5.23838 13.9623 7.87341 10.8167L7.90965 10.7734L7.96117 10.7501C10.4378 9.6265 11.8727 9.08795 14.5844 8.63245L14.6203 8.62641L14.6566 8.63084C16.372 8.84047 17.714 9.1034 18.6527 9.89798C19.6049 10.704 20.0927 12.0091 20.2432 14.1607L20.257 14.3571L20.0683 14.4149C16.0406 15.647 13.2724 16.9894 10.9258 18.7729C8.57616 20.5585 6.63625 22.7958 4.27437 25.8404Z" fill="url(#paint6_linear_672_245)"/>
<path d="M4.27437 25.8404L3.75937 26.5043L3.82589 25.666C4.47079 17.5389 5.23838 13.9623 7.87341 10.8167L7.90965 10.7734L7.96117 10.7501C10.4378 9.6265 11.8727 9.08795 14.5844 8.63245L14.6203 8.62641L14.6566 8.63084C16.372 8.84047 17.714 9.1034 18.6527 9.89798C19.6049 10.704 20.0927 12.0091 20.2432 14.1607L20.257 14.3571L20.0683 14.4149C16.0406 15.647 13.2724 16.9894 10.9258 18.7729C8.57616 20.5585 6.63625 22.7958 4.27437 25.8404Z" stroke="black" stroke-width="0.5"/>
<path d="M4.27437 25.8404L3.75937 26.5043L3.82589 25.666C4.47079 17.5389 5.23838 13.9623 7.87341 10.8167L7.90965 10.7734L7.96117 10.7501C10.4378 9.6265 11.8727 9.08795 14.5844 8.63245L14.6203 8.62641L14.6566 8.63084C16.372 8.84047 17.714 9.1034 18.6527 9.89798C19.6049 10.704 20.0927 12.0091 20.2432 14.1607L20.257 14.3571L20.0683 14.4149C16.0406 15.647 13.2724 16.9894 10.9258 18.7729C8.57616 20.5585 6.63625 22.7958 4.27437 25.8404Z" stroke="white" stroke-opacity="0.75" stroke-width="0.5"/>
<path d="M4.08033 25.6862C4.36627 24.4761 4.62341 23.4161 4.88309 22.4551M7.7374 15.7023C7.9293 15.4377 8.10967 15.1996 8.28125 14.9842M7.7374 15.7023L7.61277 12.9492M7.7374 15.7023C7.31638 16.365 6.95564 16.9992 6.63765 17.6336M11.4426 12.5584C11.807 12.441 12.1335 12.3484 12.4359 12.2828M11.4426 12.5584C10.5854 12.9399 9.95522 13.2546 9.25438 13.9099M11.4426 12.5584L13.0613 10.2271M15.394 12.7091C14.763 12.393 14.2389 12.2219 13.7021 12.1779M14.1826 13.6407L12.4359 12.2828M12.4359 12.2828C12.8976 12.1826 13.3034 12.1452 13.7021 12.1779M12.1435 14.6919L10.2313 13.49C9.91728 13.4391 9.44918 13.7487 9.25438 13.9099M9.25438 13.9099C8.95124 14.1933 8.6349 14.5404 8.28125 14.9842M9.25438 13.9099L9.85165 11.5802M10.5678 15.74L8.28125 14.9842M8.56104 17.3613L6.14777 18.6876M6.14777 18.6876C6.30003 18.3331 6.46235 17.9833 6.63765 17.6336M6.14777 18.6876C5.82977 19.4282 5.55562 20.1899 5.29857 21.0164M6.90364 20.1403L4.88309 22.4551M4.88309 22.4551C5.01937 21.9507 5.15635 21.4737 5.29857 21.0164M17.0036 10.8218L13.7021 12.1779M6.31465 15.6133L6.63765 17.6336M5.33512 18.9476L5.29857 21.0164" stroke="black" stroke-width="0.5"/>
<path d="M4.08033 25.6862C4.36627 24.4761 4.62341 23.4161 4.88309 22.4551M7.7374 15.7023C7.9293 15.4377 8.10967 15.1996 8.28125 14.9842M7.7374 15.7023L7.61277 12.9492M7.7374 15.7023C7.31638 16.365 6.95564 16.9992 6.63765 17.6336M11.4426 12.5584C11.807 12.441 12.1335 12.3484 12.4359 12.2828M11.4426 12.5584C10.5854 12.9399 9.95522 13.2546 9.25438 13.9099M11.4426 12.5584L13.0613 10.2271M15.394 12.7091C14.763 12.393 14.2389 12.2219 13.7021 12.1779M14.1826 13.6407L12.4359 12.2828M12.4359 12.2828C12.8976 12.1826 13.3034 12.1452 13.7021 12.1779M12.1435 14.6919L10.2313 13.49C9.91728 13.4391 9.44918 13.7487 9.25438 13.9099M9.25438 13.9099C8.95124 14.1933 8.6349 14.5404 8.28125 14.9842M9.25438 13.9099L9.85165 11.5802M10.5678 15.74L8.28125 14.9842M8.56104 17.3613L6.14777 18.6876M6.14777 18.6876C6.30003 18.3331 6.46235 17.9833 6.63765 17.6336M6.14777 18.6876C5.82977 19.4282 5.55562 20.1899 5.29857 21.0164M6.90364 20.1403L4.88309 22.4551M4.88309 22.4551C5.01937 21.9507 5.15635 21.4737 5.29857 21.0164M17.0036 10.8218L13.7021 12.1779M6.31465 15.6133L6.63765 17.6336M5.33512 18.9476L5.29857 21.0164" stroke="white" stroke-opacity="0.75" stroke-width="0.5"/>
<path d="M19.1834 34.379L18.8655 34.3009L19.0262 33.9643C20.6404 30.5822 22.0758 28.6493 23.8046 28.1734C25.5376 27.6963 27.4792 28.7058 30.0374 30.8787L30.2026 31.019L30.1155 31.2331C29.3048 33.2251 28.3175 34.4697 26.6266 34.9707C24.9638 35.4633 22.6426 35.2287 19.1834 34.379Z" fill="url(#paint7_linear_672_245)"/>
<path d="M19.1834 34.379L18.8655 34.3009L19.0262 33.9643C20.6404 30.5822 22.0758 28.6493 23.8046 28.1734C25.5376 27.6963 27.4792 28.7058 30.0374 30.8787L30.2026 31.019L30.1155 31.2331C29.3048 33.2251 28.3175 34.4697 26.6266 34.9707C24.9638 35.4633 22.6426 35.2287 19.1834 34.379Z" stroke="black" stroke-width="0.5"/>
<path d="M19.1834 34.379L18.8655 34.3009L19.0262 33.9643C20.6404 30.5822 22.0758 28.6493 23.8046 28.1734C25.5376 27.6963 27.4792 28.7058 30.0374 30.8787L30.2026 31.019L30.1155 31.2331C29.3048 33.2251 28.3175 34.4697 26.6266 34.9707C24.9638 35.4633 22.6426 35.2287 19.1834 34.379Z" stroke="white" stroke-opacity="0.75" stroke-width="0.5"/>
<path d="M27.0522 31.5502L26.986 32.0896C26.6205 32.0192 26.218 31.9108 25.7616 31.7627L25.8505 31.2291L27.0522 31.5502Z" stroke="black" stroke-width="0.5"/>
<path d="M27.0522 31.5502L26.986 32.0896C26.6205 32.0192 26.218 31.9108 25.7616 31.7627L25.8505 31.2291L27.0522 31.5502Z" stroke="white" stroke-opacity="0.75" stroke-width="0.5"/>
<path d="M46.4876 20.7345L46.0929 20.6989L46.3131 20.3012C49.9594 13.716 52.8694 9.91381 55.869 8.5901C58.8978 7.25348 61.9561 8.46412 65.8244 11.6515L66.0068 11.8018L65.895 12.027C64.0165 15.8084 62.0542 18.265 59.094 19.6299C56.1476 20.9885 52.2372 21.2532 46.4876 20.7345Z" fill="url(#paint8_linear_672_245)"/>
<path d="M46.4876 20.7345L46.0929 20.6989L46.3131 20.3012C49.9594 13.716 52.8694 9.91381 55.869 8.5901C58.8978 7.25348 61.9561 8.46412 65.8244 11.6515L66.0068 11.8018L65.895 12.027C64.0165 15.8084 62.0542 18.265 59.094 19.6299C56.1476 20.9885 52.2372 21.2532 46.4876 20.7345Z" stroke="black" stroke-width="0.5"/>
<path d="M46.4876 20.7345L46.0929 20.6989L46.3131 20.3012C49.9594 13.716 52.8694 9.91381 55.869 8.5901C58.8978 7.25348 61.9561 8.46412 65.8244 11.6515L66.0068 11.8018L65.895 12.027C64.0165 15.8084 62.0542 18.265 59.094 19.6299C56.1476 20.9885 52.2372 21.2532 46.4876 20.7345Z" stroke="white" stroke-opacity="0.75" stroke-width="0.5"/>
<path d="M60.5327 13.7563L60.5184 14.3046C59.9119 14.285 59.2498 14.208 58.5032 14.0751L58.5436 13.5295L60.5327 13.7563Z" fill="url(#paint9_linear_672_245)"/>
<path d="M60.5327 13.7563L60.5184 14.3046C59.9119 14.285 59.2498 14.208 58.5032 14.0751L58.5436 13.5295L60.5327 13.7563Z" stroke="black" stroke-width="0.5"/>
<path d="M60.5327 13.7563L60.5184 14.3046C59.9119 14.285 59.2498 14.208 58.5032 14.0751L58.5436 13.5295L60.5327 13.7563Z" stroke="white" stroke-opacity="0.75" stroke-width="0.5"/>
<path d="M86.2716 19.7188L86.0271 19.3671L86.4245 19.3201C97.5261 18.0085 101.805 16.9517 104.782 14.294C104.881 14.2054 104.969 14.1349 105.046 14.0843C105.114 14.0394 105.203 13.9895 105.297 13.9811C105.349 13.9765 105.429 13.9824 105.506 14.0406C105.586 14.101 105.619 14.1847 105.63 14.2463C105.65 14.3506 105.622 14.4552 105.6 14.5242C105.503 14.827 105.186 15.363 104.721 16.0092C103.778 17.3199 102.148 19.1921 100.156 20.7692C98.1673 22.3432 95.7913 23.6441 93.3583 23.7679C90.9027 23.8928 88.4245 22.8165 86.2716 19.7188Z" fill="url(#paint10_linear_672_245)"/>
<path d="M86.2716 19.7188L86.0271 19.3671L86.4245 19.3201C97.5261 18.0085 101.805 16.9517 104.782 14.294C104.881 14.2054 104.969 14.1349 105.046 14.0843C105.114 14.0394 105.203 13.9895 105.297 13.9811C105.349 13.9765 105.429 13.9824 105.506 14.0406C105.586 14.101 105.619 14.1847 105.63 14.2463C105.65 14.3506 105.622 14.4552 105.6 14.5242C105.503 14.827 105.186 15.363 104.721 16.0092C103.778 17.3199 102.148 19.1921 100.156 20.7692C98.1673 22.3432 95.7913 23.6441 93.3583 23.7679C90.9027 23.8928 88.4245 22.8165 86.2716 19.7188Z" stroke="black" stroke-width="0.5"/>
<path d="M86.2716 19.7188L86.0271 19.3671L86.4245 19.3201C97.5261 18.0085 101.805 16.9517 104.782 14.294C104.881 14.2054 104.969 14.1349 105.046 14.0843C105.114 14.0394 105.203 13.9895 105.297 13.9811C105.349 13.9765 105.429 13.9824 105.506 14.0406C105.586 14.101 105.619 14.1847 105.63 14.2463C105.65 14.3506 105.622 14.4552 105.6 14.5242C105.503 14.827 105.186 15.363 104.721 16.0092C103.778 17.3199 102.148 19.1921 100.156 20.7692C98.1673 22.3432 95.7913 23.6441 93.3583 23.7679C90.9027 23.8928 88.4245 22.8165 86.2716 19.7188Z" stroke="white" stroke-opacity="0.75" stroke-width="0.5"/>
<path d="M98.8169 20.1819L98.817 20.182L98.8121 20.1844C97.5659 20.808 96.6147 21.1344 95.5882 21.2498C95.5881 21.2498 95.588 21.2499 95.5878 21.2499L95.576 21.2512L95.5759 21.2512C94.9869 21.3164 94.3789 21.3116 93.6833 21.2583L93.6726 20.746L95.5219 20.7383C96.4694 20.6301 97.3628 20.3284 98.5708 19.725L101.951 17.4522L102.251 17.8724C101.21 18.7756 100.166 19.4653 98.8169 20.1819Z" stroke="black" stroke-width="0.5"/>
<path d="M98.8169 20.1819L98.817 20.182L98.8121 20.1844C97.5659 20.808 96.6147 21.1344 95.5882 21.2498C95.5881 21.2498 95.588 21.2499 95.5878 21.2499L95.576 21.2512L95.5759 21.2512C94.9869 21.3164 94.3789 21.3116 93.6833 21.2583L93.6726 20.746L95.5219 20.7383C96.4694 20.6301 97.3628 20.3284 98.5708 19.725L101.951 17.4522L102.251 17.8724C101.21 18.7756 100.166 19.4653 98.8169 20.1819Z" stroke="white" stroke-opacity="0.75" stroke-width="0.5"/>
<path d="M26.1762 17.4372L25.416 17.3583L26.0666 16.9287C33.3004 12.1526 36.7888 10.5626 41.12 11.2018L41.1698 11.2092L41.2134 11.2406C43.7574 13.0702 45.1345 14.2035 47.2689 16.7232L47.2922 16.7507L47.3085 16.7845C48.2439 18.7153 48.8865 20.2804 48.8288 21.7794C48.7702 23.3011 47.9977 24.6797 46.2923 26.278L46.1563 26.4055L46.0127 26.2724C42.3677 22.8923 39.4439 20.8994 36.4217 19.6433C33.3966 18.386 30.2595 17.8609 26.1762 17.4372Z" fill="url(#paint11_linear_672_245)"/>
<path d="M26.1762 17.4372L25.416 17.3583L26.0666 16.9287C33.3004 12.1526 36.7888 10.5626 41.12 11.2018L41.1698 11.2092L41.2134 11.2406C43.7574 13.0702 45.1345 14.2035 47.2689 16.7232L47.2922 16.7507L47.3085 16.7845C48.2439 18.7153 48.8865 20.2804 48.8288 21.7794C48.7702 23.3011 47.9977 24.6797 46.2923 26.278L46.1563 26.4055L46.0127 26.2724C42.3677 22.8923 39.4439 20.8994 36.4217 19.6433C33.3966 18.386 30.2595 17.8609 26.1762 17.4372Z" stroke="black" stroke-width="0.5"/>
<path d="M26.1762 17.4372L25.416 17.3583L26.0666 16.9287C33.3004 12.1526 36.7888 10.5626 41.12 11.2018L41.1698 11.2092L41.2134 11.2406C43.7574 13.0702 45.1345 14.2035 47.2689 16.7232L47.2922 16.7507L47.3085 16.7845C48.2439 18.7153 48.8865 20.2804 48.8288 21.7794C48.7702 23.3011 47.9977 24.6797 46.2923 26.278L46.1563 26.4055L46.0127 26.2724C42.3677 22.8923 39.4439 20.8994 36.4217 19.6433C33.3966 18.386 30.2595 17.8609 26.1762 17.4372Z" stroke="white" stroke-opacity="0.75" stroke-width="0.5"/>
<path d="M26.1889 17.1686C27.3888 16.6558 28.4441 16.2135 29.4181 15.8403M36.9292 14.2921C37.2753 14.315 37.5918 14.3436 37.8835 14.3783M36.9292 14.2921L39.1569 12.3165M36.9292 14.2921C36.1008 14.297 35.3353 14.3457 34.5974 14.4391M41.9653 16.0512C42.2997 16.3527 42.5888 16.6314 42.8398 16.903M41.9653 16.0512C41.0902 15.4124 40.4181 14.9657 39.4147 14.6736M41.9653 16.0512L44.9686 16.1775M44.3983 20.2757C44.2547 19.4053 44.0587 18.7437 43.7479 18.154M42.8325 19.636L42.8398 16.903M42.8398 16.903C43.2228 17.3177 43.517 17.716 43.7479 18.154M40.6303 18.2128L40.3995 15.4116C40.2388 15.0498 39.676 14.7689 39.4147 14.6736M39.4147 14.6736C38.9807 14.5473 38.4847 14.4499 37.8835 14.3783M39.4147 14.6736L41.755 13.7352M38.7308 17.2711L37.8835 14.3783M36.0716 16.2637L33.3963 14.6345M33.3963 14.6345C33.7922 14.5557 34.1906 14.4906 34.5974 14.4391M33.3963 14.6345C32.5694 14.7991 31.7531 15.0236 30.8936 15.3094M32.6679 16.3971L29.4181 15.8403M29.4181 15.8403C29.9293 15.6444 30.418 15.4675 30.8936 15.3094M47.0235 20.6902L43.7479 18.154M36.0822 12.7478L34.5974 14.4391M32.652 13.9607L30.8936 15.3094" stroke="black" stroke-width="0.5"/>
<path d="M26.1889 17.1686C27.3888 16.6558 28.4441 16.2135 29.4181 15.8403M36.9292 14.2921C37.2753 14.315 37.5918 14.3436 37.8835 14.3783M36.9292 14.2921L39.1569 12.3165M36.9292 14.2921C36.1008 14.297 35.3353 14.3457 34.5974 14.4391M41.9653 16.0512C42.2997 16.3527 42.5888 16.6314 42.8398 16.903M41.9653 16.0512C41.0902 15.4124 40.4181 14.9657 39.4147 14.6736M41.9653 16.0512L44.9686 16.1775M44.3983 20.2757C44.2547 19.4053 44.0587 18.7437 43.7479 18.154M42.8325 19.636L42.8398 16.903M42.8398 16.903C43.2228 17.3177 43.517 17.716 43.7479 18.154M40.6303 18.2128L40.3995 15.4116C40.2388 15.0498 39.676 14.7689 39.4147 14.6736M39.4147 14.6736C38.9807 14.5473 38.4847 14.4499 37.8835 14.3783M39.4147 14.6736L41.755 13.7352M38.7308 17.2711L37.8835 14.3783M36.0716 16.2637L33.3963 14.6345M33.3963 14.6345C33.7922 14.5557 34.1906 14.4906 34.5974 14.4391M33.3963 14.6345C32.5694 14.7991 31.7531 15.0236 30.8936 15.3094M32.6679 16.3971L29.4181 15.8403M29.4181 15.8403C29.9293 15.6444 30.418 15.4675 30.8936 15.3094M47.0235 20.6902L43.7479 18.154M36.0822 12.7478L34.5974 14.4391M32.652 13.9607L30.8936 15.3094" stroke="white" stroke-opacity="0.75" stroke-width="0.5"/>
<path d="M69.6681 23.7693L68.9558 24.1502L69.3133 23.4148C72.7967 16.2498 74.7731 13.3129 78.3092 11.6047L78.3587 11.5808L78.4155 11.5824C81.087 11.6579 82.5952 11.8048 85.245 12.5981L85.2809 12.6089L85.3132 12.6295C86.8123 13.5881 87.9496 14.4287 88.5274 15.576C89.1127 16.7382 89.0962 18.1505 88.4688 20.1903L88.4118 20.3755L88.2158 20.3438C84.0841 19.6754 81.0684 19.6705 78.2824 20.258C75.4926 20.8464 72.9177 22.0317 69.6681 23.7693Z" fill="url(#paint12_linear_672_245)"/>
<path d="M69.6681 23.7693L68.9558 24.1502L69.3133 23.4148C72.7967 16.2498 74.7731 13.3129 78.3092 11.6047L78.3587 11.5808L78.4155 11.5824C81.087 11.6579 82.5952 11.8048 85.245 12.5981L85.2809 12.6089L85.3132 12.6295C86.8123 13.5881 87.9496 14.4287 88.5274 15.576C89.1127 16.7382 89.0962 18.1505 88.4688 20.1903L88.4118 20.3755L88.2158 20.3438C84.0841 19.6754 81.0684 19.6705 78.2824 20.258C75.4926 20.8464 72.9177 22.0317 69.6681 23.7693Z" stroke="black" stroke-width="0.5"/>
<path d="M69.6681 23.7693L68.9558 24.1502L69.3133 23.4148C72.7967 16.2498 74.7731 13.3129 78.3092 11.6047L78.3587 11.5808L78.4155 11.5824C81.087 11.6579 82.5952 11.8048 85.245 12.5981L85.2809 12.6089L85.3132 12.6295C86.8123 13.5881 87.9496 14.4287 88.5274 15.576C89.1127 16.7382 89.0962 18.1505 88.4688 20.1903L88.4118 20.3755L88.2158 20.3438C84.0841 19.6754 81.0684 19.6705 78.2824 20.258C75.4926 20.8464 72.9177 22.0317 69.6681 23.7693Z" stroke="white" stroke-opacity="0.75" stroke-width="0.5"/>
<path d="M69.5408 23.5438C70.2337 22.5617 70.8467 21.7044 71.4269 20.939M76.4477 16.0205C76.7178 15.8635 76.968 15.7257 77.202 15.6048M76.4477 16.0205L77.3131 13.44M76.4477 16.0205C75.8257 16.4403 75.2692 16.8609 74.7518 17.3007M80.9646 14.7918C81.3405 14.8468 81.6729 14.9077 81.9737 14.9826M80.9646 14.7918C80.0427 14.7589 79.3527 14.7661 78.4768 15.0541M80.9646 14.7918L83.2787 13.3765M84.5348 16.6945C84.0686 16.1228 83.6489 15.7318 83.1722 15.4517M83.0923 17.0079L81.9737 14.9826M81.9737 14.9826C82.4327 15.0969 82.8182 15.2437 83.1722 15.4517M80.8481 17.0614L79.5221 15.1052C79.2523 14.9184 78.7128 14.9933 78.4768 15.0541M78.4768 15.0541C78.0979 15.1786 77.6843 15.3557 77.202 15.6048M78.4768 15.0541L79.8536 13.1842M79.03 17.319L77.202 15.6048M76.6127 17.9098L73.9274 18.0486M73.9274 18.0486C74.1933 17.7914 74.4666 17.5431 74.7518 17.3007M73.9274 18.0486C73.3722 18.5858 72.8498 19.1619 72.3199 19.8051M74.1037 19.7183L71.4269 20.939M71.4269 20.939C71.7313 20.5373 72.0267 20.1609 72.3199 19.8051M86.6827 15.6823L83.1722 15.4517M75.1745 15.3036L74.7518 17.3007M73.0896 17.9241L72.3199 19.8051" stroke="black" stroke-width="0.5"/>
<path d="M69.5408 23.5438C70.2337 22.5617 70.8467 21.7044 71.4269 20.939M76.4477 16.0205C76.7178 15.8635 76.968 15.7257 77.202 15.6048M76.4477 16.0205L77.3131 13.44M76.4477 16.0205C75.8257 16.4403 75.2692 16.8609 74.7518 17.3007M80.9646 14.7918C81.3405 14.8468 81.6729 14.9077 81.9737 14.9826M80.9646 14.7918C80.0427 14.7589 79.3527 14.7661 78.4768 15.0541M80.9646 14.7918L83.2787 13.3765M84.5348 16.6945C84.0686 16.1228 83.6489 15.7318 83.1722 15.4517M83.0923 17.0079L81.9737 14.9826M81.9737 14.9826C82.4327 15.0969 82.8182 15.2437 83.1722 15.4517M80.8481 17.0614L79.5221 15.1052C79.2523 14.9184 78.7128 14.9933 78.4768 15.0541M78.4768 15.0541C78.0979 15.1786 77.6843 15.3557 77.202 15.6048M78.4768 15.0541L79.8536 13.1842M79.03 17.319L77.202 15.6048M76.6127 17.9098L73.9274 18.0486M73.9274 18.0486C74.1933 17.7914 74.4666 17.5431 74.7518 17.3007M73.9274 18.0486C73.3722 18.5858 72.8498 19.1619 72.3199 19.8051M74.1037 19.7183L71.4269 20.939M71.4269 20.939C71.7313 20.5373 72.0267 20.1609 72.3199 19.8051M86.6827 15.6823L83.1722 15.4517M75.1745 15.3036L74.7518 17.3007M73.0896 17.9241L72.3199 19.8051" stroke="white" stroke-opacity="0.75" stroke-width="0.5"/>
<path d="M88.7403 14.6906L87.9928 14.5531L88.6672 14.175C95.1831 10.5227 98.3045 9.37766 102.076 10.2384L102.123 10.2493L102.164 10.2825C104.316 12.0532 105.477 13.1368 107.244 15.4805L107.265 15.5084L107.279 15.542C108.02 17.2857 108.524 18.701 108.413 20.0136C108.3 21.3522 107.558 22.5081 106.001 23.7826L105.858 23.8993L105.724 23.7591C102.672 20.5639 100.196 18.6269 97.6062 17.324C95.0135 16.0199 92.2935 15.3443 88.7403 14.6906Z" fill="url(#paint13_linear_672_245)"/>
<path d="M88.7403 14.6906L87.9928 14.5531L88.6672 14.175C95.1831 10.5227 98.3045 9.37766 102.076 10.2384L102.123 10.2493L102.164 10.2825C104.316 12.0532 105.477 13.1368 107.244 15.4805L107.265 15.5084L107.279 15.542C108.02 17.2857 108.524 18.701 108.413 20.0136C108.3 21.3522 107.558 22.5081 106.001 23.7826L105.858 23.8993L105.724 23.7591C102.672 20.5639 100.196 18.6269 97.6062 17.324C95.0135 16.0199 92.2935 15.3443 88.7403 14.6906Z" stroke="black" stroke-width="0.5"/>
<path d="M88.7403 14.6906L87.9928 14.5531L88.6672 14.175C95.1831 10.5227 98.3045 9.37766 102.076 10.2384L102.123 10.2493L102.164 10.2825C104.316 12.0532 105.477 13.1368 107.244 15.4805L107.265 15.5084L107.279 15.542C108.02 17.2857 108.524 18.701 108.413 20.0136C108.3 21.3522 107.558 22.5081 106.001 23.7826L105.858 23.8993L105.724 23.7591C102.672 20.5639 100.196 18.6269 97.6062 17.324C95.0135 16.0199 92.2935 15.3443 88.7403 14.6906Z" stroke="white" stroke-opacity="0.75" stroke-width="0.5"/>
<path d="M88.7705 14.421C89.8401 14.0585 90.7804 13.7472 91.647 13.4904M98.2763 12.6672C98.5781 12.7113 98.8537 12.7583 99.1074 12.8088M98.2763 12.6672L100.303 11.1033M98.2763 12.6672C97.5517 12.6137 96.8805 12.6026 96.2315 12.6324M102.61 14.5497C102.891 14.8354 103.132 15.0982 103.341 15.3521M102.61 14.5497C101.87 13.9327 101.3 13.497 100.435 13.1727M102.61 14.5497L105.231 14.8693M104.57 18.3963C104.479 17.6287 104.334 17.0392 104.085 16.5043M103.226 17.7303L103.341 15.3521M103.341 15.3521C103.659 15.7397 103.901 16.1069 104.085 16.5043M101.357 16.3378L101.266 13.8837C101.14 13.5577 100.659 13.2739 100.435 13.1727M100.435 13.1727C100.06 13.0325 99.6302 12.9131 99.1074 12.8088M100.435 13.1727L102.518 12.5193M99.7333 15.3857L99.1074 12.8088M97.4481 14.3233L95.1735 12.7186M95.1735 12.7186C95.5228 12.6777 95.8738 12.6488 96.2315 12.6324M95.1735 12.7186C94.4438 12.8042 93.7212 12.9426 92.9582 13.1313M94.4665 14.2018L91.647 13.4904M91.647 13.4904C92.1017 13.3556 92.5361 13.2358 92.9582 13.1313M106.849 18.9403L104.085 16.5043M97.5971 11.264L96.2315 12.6324M94.5494 12.0802L92.9582 13.1313" stroke="black" stroke-width="0.5"/>
<path d="M88.7705 14.421C89.8401 14.0585 90.7804 13.7472 91.647 13.4904M98.2763 12.6672C98.5781 12.7113 98.8537 12.7583 99.1074 12.8088M98.2763 12.6672L100.303 11.1033M98.2763 12.6672C97.5517 12.6137 96.8805 12.6026 96.2315 12.6324M102.61 14.5497C102.891 14.8354 103.132 15.0982 103.341 15.3521M102.61 14.5497C101.87 13.9327 101.3 13.497 100.435 13.1727M102.61 14.5497L105.231 14.8693M104.57 18.3963C104.479 17.6287 104.334 17.0392 104.085 16.5043M103.226 17.7303L103.341 15.3521M103.341 15.3521C103.659 15.7397 103.901 16.1069 104.085 16.5043M101.357 16.3378L101.266 13.8837C101.14 13.5577 100.659 13.2739 100.435 13.1727M100.435 13.1727C100.06 13.0325 99.6302 12.9131 99.1074 12.8088M100.435 13.1727L102.518 12.5193M99.7333 15.3857L99.1074 12.8088M97.4481 14.3233L95.1735 12.7186M95.1735 12.7186C95.5228 12.6777 95.8738 12.6488 96.2315 12.6324M95.1735 12.7186C94.4438 12.8042 93.7212 12.9426 92.9582 13.1313M94.4665 14.2018L91.647 13.4904M91.647 13.4904C92.1017 13.3556 92.5361 13.2358 92.9582 13.1313M106.849 18.9403L104.085 16.5043M97.5971 11.264L96.2315 12.6324M94.5494 12.0802L92.9582 13.1313" stroke="white" stroke-opacity="0.75" stroke-width="0.5"/>
<path d="M10.8314 20.2626L10.625 20.6167L11.0128 20.6699L11.0431 20.6741C15.735 21.3176 19.4663 21.8294 22.6017 20.8065C25.7714 19.7724 28.2974 17.1874 30.6385 11.7571L30.7716 11.4486L30.4604 11.3805C25.9634 10.3967 22.5202 10.0681 19.4616 11.279C16.3985 12.4916 13.7633 15.2302 10.8314 20.2626Z" fill="url(#paint14_linear_672_245)"/>
<path d="M10.8314 20.2626L10.625 20.6167L11.0128 20.6699L11.0431 20.6741C15.735 21.3176 19.4663 21.8294 22.6017 20.8065C25.7714 19.7724 28.2974 17.1874 30.6385 11.7571L30.7716 11.4486L30.4604 11.3805C25.9634 10.3967 22.5202 10.0681 19.4616 11.279C16.3985 12.4916 13.7633 15.2302 10.8314 20.2626Z" stroke="black" stroke-width="0.5"/>
<path d="M10.8314 20.2626L10.625 20.6167L11.0128 20.6699L11.0431 20.6741C15.735 21.3176 19.4663 21.8294 22.6017 20.8065C25.7714 19.7724 28.2974 17.1874 30.6385 11.7571L30.7716 11.4486L30.4604 11.3805C25.9634 10.3967 22.5202 10.0681 19.4616 11.279C16.3985 12.4916 13.7633 15.2302 10.8314 20.2626Z" stroke="white" stroke-opacity="0.75" stroke-width="0.5"/>
<path d="M30.3226 11.569C29.7055 12.1492 29.0841 12.6776 28.4259 13.1676M13.0456 18.9504C13.8369 18.7599 14.5887 18.5744 15.3042 18.3925M14.8133 19.7234L16.9301 17.9686M16.9301 17.9686C16.4097 18.108 15.8682 18.2492 15.3042 18.3925M16.9301 17.9686C17.6028 17.7883 18.2402 17.6109 18.8455 17.4349M17.8415 19.8388L20.8395 16.8226M20.8395 16.8226C20.2151 17.0261 19.5522 17.2294 18.8455 17.4349M20.8395 16.8226C21.5377 16.5951 22.1877 16.3676 22.7965 16.1372M21.624 19.5123L24.608 15.3885M24.608 15.3885C24.045 15.6437 23.444 15.8921 22.7965 16.1372M24.608 15.3885C25.1555 15.1404 25.6671 14.8859 26.1508 14.6218M25.7118 17.7225L28.4259 13.1676M28.4259 13.1676C27.7227 13.691 26.9775 14.1705 26.1508 14.6218M14.1575 17.0843L15.3042 18.3925M17.1862 15.2341L18.8455 17.4349M20.7429 13.3216L22.7965 16.1372M24.4975 12.4713L26.1508 14.6218" stroke="black" stroke-width="0.5"/>
<path d="M30.3226 11.569C29.7055 12.1492 29.0841 12.6776 28.4259 13.1676M13.0456 18.9504C13.8369 18.7599 14.5887 18.5744 15.3042 18.3925M14.8133 19.7234L16.9301 17.9686M16.9301 17.9686C16.4097 18.108 15.8682 18.2492 15.3042 18.3925M16.9301 17.9686C17.6028 17.7883 18.2402 17.6109 18.8455 17.4349M17.8415 19.8388L20.8395 16.8226M20.8395 16.8226C20.2151 17.0261 19.5522 17.2294 18.8455 17.4349M20.8395 16.8226C21.5377 16.5951 22.1877 16.3676 22.7965 16.1372M21.624 19.5123L24.608 15.3885M24.608 15.3885C24.045 15.6437 23.444 15.8921 22.7965 16.1372M24.608 15.3885C25.1555 15.1404 25.6671 14.8859 26.1508 14.6218M25.7118 17.7225L28.4259 13.1676M28.4259 13.1676C27.7227 13.691 26.9775 14.1705 26.1508 14.6218M14.1575 17.0843L15.3042 18.3925M17.1862 15.2341L18.8455 17.4349M20.7429 13.3216L22.7965 16.1372M24.4975 12.4713L26.1508 14.6218" stroke="white" stroke-opacity="0.75" stroke-width="0.5"/>
<path d="M94.51 34.567L94.8916 34.5814L94.7486 34.2257L94.7335 34.1881C93.5935 31.352 92.6762 29.0701 91.2402 27.5943C89.7696 26.083 87.7843 25.4388 84.5881 25.7782L84.2837 25.8105L84.3795 26.1027C85.3121 28.9468 86.2239 31.0179 87.7293 32.3985C89.245 33.7887 91.3242 34.4467 94.51 34.567Z" fill="url(#paint15_linear_672_245)"/>
<path d="M94.51 34.567L94.8916 34.5814L94.7486 34.2257L94.7335 34.1881C93.5935 31.352 92.6762 29.0701 91.2402 27.5943C89.7696 26.083 87.7843 25.4388 84.5881 25.7782L84.2837 25.8105L84.3795 26.1027C85.3121 28.9468 86.2239 31.0179 87.7293 32.3985C89.245 33.7887 91.3242 34.4467 94.51 34.567Z" stroke="black" stroke-width="0.5"/>
<path d="M94.51 34.567L94.8916 34.5814L94.7486 34.2257L94.7335 34.1881C93.5935 31.352 92.6762 29.0701 91.2402 27.5943C89.7696 26.083 87.7843 25.4388 84.5881 25.7782L84.2837 25.8105L84.3795 26.1027C85.3121 28.9468 86.2239 31.0179 87.7293 32.3985C89.245 33.7887 91.3242 34.4467 94.51 34.567Z" stroke="white" stroke-opacity="0.75" stroke-width="0.5"/>
<path d="M84.6166 26.0983C85.0676 26.27 85.4965 26.4601 85.9193 26.6827M93.2411 33.6181C92.9128 33.2286 92.5987 32.8598 92.2974 32.5105M93.0486 32.3812L91.608 31.7201M91.608 31.7201C91.8304 31.9719 92.0599 32.2352 92.2974 32.5105M91.608 31.7201C91.3206 31.3945 91.0452 31.088 90.7804 30.7992M92.1732 30.632L89.8932 29.8581M89.8932 29.8581C90.1763 30.1492 90.4712 30.4622 90.7804 30.7992M89.8932 29.8581C89.5766 29.5325 89.2748 29.2342 88.9843 28.9602M90.8672 28.5912L88.0914 28.164M88.0914 28.164C88.3791 28.4046 88.6753 28.6687 88.9843 28.9602M88.0914 28.164C87.8117 27.93 87.5401 27.7183 87.2727 27.5254M88.8071 26.8252L85.9193 26.6827M85.9193 26.6827C86.371 26.9205 86.8157 27.1956 87.2727 27.5254M92.058 33.5598L92.2974 32.5105M90.295 32.4117L90.7804 30.7992M88.3421 30.9839L88.9843 28.9602M86.8082 29.119L87.2727 27.5254" stroke="black" stroke-width="0.5"/>
<path d="M84.6166 26.0983C85.0676 26.27 85.4965 26.4601 85.9193 26.6827M93.2411 33.6181C92.9128 33.2286 92.5987 32.8598 92.2974 32.5105M93.0486 32.3812L91.608 31.7201M91.608 31.7201C91.8304 31.9719 92.0599 32.2352 92.2974 32.5105M91.608 31.7201C91.3206 31.3945 91.0452 31.088 90.7804 30.7992M92.1732 30.632L89.8932 29.8581M89.8932 29.8581C90.1763 30.1492 90.4712 30.4622 90.7804 30.7992M89.8932 29.8581C89.5766 29.5325 89.2748 29.2342 88.9843 28.9602M90.8672 28.5912L88.0914 28.164M88.0914 28.164C88.3791 28.4046 88.6753 28.6687 88.9843 28.9602M88.0914 28.164C87.8117 27.93 87.5401 27.7183 87.2727 27.5254M88.8071 26.8252L85.9193 26.6827M85.9193 26.6827C86.371 26.9205 86.8157 27.1956 87.2727 27.5254M92.058 33.5598L92.2974 32.5105M90.295 32.4117L90.7804 30.7992M88.3421 30.9839L88.9843 28.9602M86.8082 29.119L87.2727 27.5254" stroke="white" stroke-opacity="0.75" stroke-width="0.5"/>
<path d="M36.5745 13.3307L36.2069 13.5643L36.5621 13.7816L36.5887 13.7979C39.4813 15.5672 41.7983 16.9844 44.2989 17.2171C46.829 17.4525 49.5076 16.4768 53.1336 13.5857L53.4134 13.3627L53.1394 13.1612C50.4957 11.2178 48.3005 10.0016 45.7766 9.91503C43.2535 9.8285 40.4446 10.8718 36.5745 13.3307Z" fill="url(#paint16_linear_672_245)"/>
<path d="M36.5745 13.3307L36.2069 13.5643L36.5621 13.7816L36.5887 13.7979C39.4813 15.5672 41.7983 16.9844 44.2989 17.2171C46.829 17.4525 49.5076 16.4768 53.1336 13.5857L53.4134 13.3627L53.1394 13.1612C50.4957 11.2178 48.3005 10.0016 45.7766 9.91503C43.2535 9.8285 40.4446 10.8718 36.5745 13.3307Z" stroke="black" stroke-width="0.5"/>
<path d="M36.5745 13.3307L36.2069 13.5643L36.5621 13.7816L36.5887 13.7979C39.4813 15.5672 41.7983 16.9844 44.2989 17.2171C46.829 17.4525 49.5076 16.4768 53.1336 13.5857L53.4134 13.3627L53.1394 13.1612C50.4957 11.2178 48.3005 10.0016 45.7766 9.91503C43.2535 9.8285 40.4446 10.8718 36.5745 13.3307Z" stroke="white" stroke-opacity="0.75" stroke-width="0.5"/>
<path d="M52.9676 13.3076C52.3345 13.5107 51.7182 13.6786 51.0918 13.8106M38.5994 13.1774C39.2015 13.2803 39.7754 13.375 40.3235 13.4616M39.4908 14.1937L41.5732 13.6515M41.5732 13.6515C41.1718 13.5932 40.7557 13.5299 40.3235 13.4616M41.5732 13.6515C42.0921 13.7269 42.5863 13.794 43.0584 13.8528M41.4755 15.1414L44.6258 14.0251M44.6258 14.0251C44.1306 13.9788 43.6095 13.9214 43.0584 13.8528M44.6258 14.0251C45.1797 14.0768 45.7013 14.1147 46.1964 14.1387M44.1329 16.0162L47.6933 14.169M47.6933 14.169C47.2195 14.1743 46.7229 14.1643 46.1964 14.1387M47.6933 14.169C48.1539 14.1638 48.593 14.1441 49.0171 14.11M47.5489 16.0186L51.0918 13.8106M51.0918 13.8106C50.4225 13.9517 49.7417 14.0518 49.0171 14.11M40.0508 12.2729L40.3235 13.4616M42.7802 11.9306L43.0584 13.8528M45.8869 11.6995L46.1964 14.1387M48.7239 12.2226L49.0171 14.11" stroke="black" stroke-width="0.5"/>
<path d="M52.9676 13.3076C52.3345 13.5107 51.7182 13.6786 51.0918 13.8106M38.5994 13.1774C39.2015 13.2803 39.7754 13.375 40.3235 13.4616M39.4908 14.1937L41.5732 13.6515M41.5732 13.6515C41.1718 13.5932 40.7557 13.5299 40.3235 13.4616M41.5732 13.6515C42.0921 13.7269 42.5863 13.794 43.0584 13.8528M41.4755 15.1414L44.6258 14.0251M44.6258 14.0251C44.1306 13.9788 43.6095 13.9214 43.0584 13.8528M44.6258 14.0251C45.1797 14.0768 45.7013 14.1147 46.1964 14.1387M44.1329 16.0162L47.6933 14.169M47.6933 14.169C47.2195 14.1743 46.7229 14.1643 46.1964 14.1387M47.6933 14.169C48.1539 14.1638 48.593 14.1441 49.0171 14.11M47.5489 16.0186L51.0918 13.8106M51.0918 13.8106C50.4225 13.9517 49.7417 14.0518 49.0171 14.11M40.0508 12.2729L40.3235 13.4616M42.7802 11.9306L43.0584 13.8528M45.8869 11.6995L46.1964 14.1387M48.7239 12.2226L49.0171 14.11" stroke="white" stroke-opacity="0.75" stroke-width="0.5"/>
<path d="M62.1081 25.8391L61.7423 25.6712L62.067 25.4143C71.7163 17.7774 75.1833 14.3287 76.7002 10.1733C76.7506 10.0353 76.7991 9.92051 76.846 9.83073C76.8877 9.7509 76.9453 9.65623 77.0261 9.5957C77.0708 9.56216 77.146 9.52188 77.2414 9.53015C77.3401 9.5387 77.4064 9.59426 77.4437 9.64123C77.5073 9.72136 77.53 9.8286 77.5416 9.904C77.5922 10.2332 77.5487 10.9034 77.4197 11.7624C77.1581 13.5031 76.523 16.1544 75.4156 18.7471C74.3103 21.3346 72.7206 23.8968 70.5322 25.4196C68.3235 26.9565 65.5356 27.4129 62.1081 25.8391Z" fill="url(#paint17_linear_672_245)"/>
<path d="M62.1081 25.8391L61.7423 25.6712L62.067 25.4143C71.7163 17.7774 75.1833 14.3287 76.7002 10.1733C76.7506 10.0353 76.7991 9.92051 76.846 9.83073C76.8877 9.7509 76.9453 9.65623 77.0261 9.5957C77.0708 9.56216 77.146 9.52188 77.2414 9.53015C77.3401 9.5387 77.4064 9.59426 77.4437 9.64123C77.5073 9.72136 77.53 9.8286 77.5416 9.904C77.5922 10.2332 77.5487 10.9034 77.4197 11.7624C77.1581 13.5031 76.523 16.1544 75.4156 18.7471C74.3103 21.3346 72.7206 23.8968 70.5322 25.4196C68.3235 26.9565 65.5356 27.4129 62.1081 25.8391Z" stroke="black" stroke-width="0.5"/>
<path d="M62.1081 25.8391L61.7423 25.6712L62.067 25.4143C71.7163 17.7774 75.1833 14.3287 76.7002 10.1733C76.7506 10.0353 76.7991 9.92051 76.846 9.83073C76.8877 9.7509 76.9453 9.65623 77.0261 9.5957C77.0708 9.56216 77.146 9.52188 77.2414 9.53015C77.3401 9.5387 77.4064 9.59426 77.4437 9.64123C77.5073 9.72136 77.53 9.8286 77.5416 9.904C77.5922 10.2332 77.5487 10.9034 77.4197 11.7624C77.1581 13.5031 76.523 16.1544 75.4156 18.7471C74.3103 21.3346 72.7206 23.8968 70.5322 25.4196C68.3235 26.9565 65.5356 27.4129 62.1081 25.8391Z" stroke="white" stroke-opacity="0.75" stroke-width="0.5"/>
<path d="M73.9018 18.9905L73.9019 18.9905L73.8987 18.9953C73.0374 20.2862 72.311 21.1346 71.4173 21.8344C71.4172 21.8345 71.4171 21.8345 71.417 21.8346L71.407 21.8424L71.407 21.8425C70.8934 22.2433 70.3297 22.5916 69.6621 22.9465L69.4238 22.5135L71.1298 21.4332C71.9568 20.7836 72.6434 19.9887 73.4801 18.7361L75.5474 14.7018L75.9998 14.8952C75.4587 16.3212 74.8151 17.5549 73.9018 18.9905Z" stroke="black" stroke-width="0.5"/>
<path d="M73.9018 18.9905L73.9019 18.9905L73.8987 18.9953C73.0374 20.2862 72.311 21.1346 71.4173 21.8344C71.4172 21.8345 71.4171 21.8345 71.417 21.8346L71.407 21.8424L71.407 21.8425C70.8934 22.2433 70.3297 22.5916 69.6621 22.9465L69.4238 22.5135L71.1298 21.4332C71.9568 20.7836 72.6434 19.9887 73.4801 18.7361L75.5474 14.7018L75.9998 14.8952C75.4587 16.3212 74.8151 17.5549 73.9018 18.9905Z" stroke="white" stroke-opacity="0.75" stroke-width="0.5"/>
<path d="M23.2485 6.85108L23.3363 6.53348L23.6007 6.68103C33.1069 11.9856 37.2467 13.604 41.7792 13.2165C41.9279 13.2038 42.0517 13.1991 42.1495 13.203C42.2332 13.2064 42.3411 13.2166 42.4229 13.2658C42.4689 13.2935 42.5474 13.3592 42.5591 13.4831C42.5701 13.5995 42.5134 13.6857 42.483 13.7238C42.4232 13.7988 42.3331 13.8544 42.2606 13.8943C41.9454 14.0675 41.2629 14.3037 40.3595 14.5458C38.5367 15.0342 35.7159 15.5717 32.8718 15.6715C30.0375 15.771 27.1342 15.4379 25.1834 14.1425C24.2013 13.4904 23.4554 12.5908 23.0891 11.3792C22.7236 10.1701 22.744 8.67629 23.2485 6.85108Z" fill="url(#paint18_linear_672_245)"/>
<path d="M23.2485 6.85108L23.3363 6.53348L23.6007 6.68103C33.1069 11.9856 37.2467 13.604 41.7792 13.2165C41.9279 13.2038 42.0517 13.1991 42.1495 13.203C42.2332 13.2064 42.3411 13.2166 42.4229 13.2658C42.4689 13.2935 42.5474 13.3592 42.5591 13.4831C42.5701 13.5995 42.5134 13.6857 42.483 13.7238C42.4232 13.7988 42.3331 13.8544 42.2606 13.8943C41.9454 14.0675 41.2629 14.3037 40.3595 14.5458C38.5367 15.0342 35.7159 15.5717 32.8718 15.6715C30.0375 15.771 27.1342 15.4379 25.1834 14.1425C24.2013 13.4904 23.4554 12.5908 23.0891 11.3792C22.7236 10.1701 22.744 8.67629 23.2485 6.85108Z" stroke="black" stroke-width="0.5"/>
<path d="M23.2485 6.85108L23.3363 6.53348L23.6007 6.68103C33.1069 11.9856 37.2467 13.604 41.7792 13.2165C41.9279 13.2038 42.0517 13.1991 42.1495 13.203C42.2332 13.2064 42.3411 13.2166 42.4229 13.2658C42.4689 13.2935 42.5474 13.3592 42.5591 13.4831C42.5701 13.5995 42.5134 13.6857 42.483 13.7238C42.4232 13.7988 42.3331 13.8544 42.2606 13.8943C41.9454 14.0675 41.2629 14.3037 40.3595 14.5458C38.5367 15.0342 35.7159 15.5717 32.8718 15.6715C30.0375 15.771 27.1342 15.4379 25.1834 14.1425C24.2013 13.4904 23.4554 12.5908 23.0891 11.3792C22.7236 10.1701 22.744 8.67629 23.2485 6.85108Z" stroke="white" stroke-opacity="0.75" stroke-width="0.5"/>
<path d="M32.3491 14.4444L32.3491 14.4445L32.3441 14.4438C30.8737 14.2221 29.8759 13.9358 28.9983 13.4387L28.9862 13.4318L28.9861 13.4317C28.4832 13.1454 28.0255 12.7929 27.5434 12.3525L27.8516 11.9379L29.2547 12.9861C30.0606 13.4401 30.9933 13.7138 32.4246 13.9303L36.9202 14.0766L36.9026 14.5923C35.3518 14.7066 33.9783 14.6521 32.3491 14.4444Z" stroke="black" stroke-width="0.5"/>
<path d="M32.3491 14.4444L32.3491 14.4445L32.3441 14.4438C30.8737 14.2221 29.8759 13.9358 28.9983 13.4387L28.9862 13.4318L28.9861 13.4317C28.4832 13.1454 28.0255 12.7929 27.5434 12.3525L27.8516 11.9379L29.2547 12.9861C30.0606 13.4401 30.9933 13.7138 32.4246 13.9303L36.9202 14.0766L36.9026 14.5923C35.3518 14.7066 33.9783 14.6521 32.3491 14.4444Z" stroke="white" stroke-opacity="0.75" stroke-width="0.5"/>
</g>
<defs>
<filter id="filter0_b_672_245" x="-6.55664" y="-3.84424" width="125.211" height="54.3442" filterUnits="userSpaceOnUse" color-interpolation-filters="sRGB">
<feFlood flood-opacity="0" result="BackgroundImageFix"/>
<feGaussianBlur in="BackgroundImageFix" stdDeviation="5"/>
<feComposite in2="SourceAlpha" operator="in" result="effect1_backgroundBlur_672_245"/>
<feBlend mode="normal" in="SourceGraphic" in2="effect1_backgroundBlur_672_245" result="shape"/>
</filter>
<linearGradient id="paint0_linear_672_245" x1="54.9337" y1="13.8521" x2="54.9337" y2="40.0001" gradientUnits="userSpaceOnUse">
<stop stop-color="#FF4D00"/>
<stop offset="0.166667" stop-color="#C75727"/>
<stop offset="0.270833" stop-color="#AF5B38"/>
<stop offset="0.791567" stop-color="#7F6459"/>
<stop offset="0.791667" stop-color="#7E6459"/>
<stop offset="0.969791" stop-color="#6C6866"/>
<stop offset="1" stop-color="#696969"/>
</linearGradient>
<linearGradient id="paint1_linear_672_245" x1="18.3385" y1="18.5879" x2="35.5012" y2="15.2719" gradientUnits="userSpaceOnUse">
<stop stop-color="#DBFF00"/>
<stop offset="1" stop-color="#7F4108" stop-opacity="0.88"/>
</linearGradient>
<linearGradient id="paint2_linear_672_245" x1="82.7017" y1="16.3706" x2="97.3341" y2="17.3976" gradientUnits="userSpaceOnUse">
<stop stop-color="#FF5C00"/>
<stop offset="1" stop-color="#FF0000"/>
</linearGradient>
<linearGradient id="paint3_linear_672_245" x1="88.4773" y1="17.1472" x2="97.3008" y2="17.7665" gradientUnits="userSpaceOnUse">
<stop stop-color="#FF5C00"/>
<stop offset="1" stop-color="#FF0000"/>
</linearGradient>
<linearGradient id="paint4_linear_672_245" x1="75.6824" y1="8.65189" x2="61.4571" y2="19.4779" gradientUnits="userSpaceOnUse">
<stop stop-color="#D5D915"/>
<stop offset="1" stop-color="#A80303"/>
</linearGradient>
<linearGradient id="paint5_linear_672_245" x1="54.6657" y1="15.5988" x2="54.8817" y2="26.9158" gradientUnits="userSpaceOnUse">
<stop stop-color="#DBFF00"/>
<stop offset="1" stop-color="#7F4108" stop-opacity="0.88"/>
</linearGradient>
<linearGradient id="paint6_linear_672_245" x1="20.1966" y1="13.6753" x2="2.08431" y2="19.6248" gradientUnits="userSpaceOnUse">
<stop stop-color="#CF9B16"/>
<stop offset="1" stop-color="#8A0900"/>
</linearGradient>
<linearGradient id="paint7_linear_672_245" x1="21.7305" y1="36.7222" x2="28.7921" y2="29.9342" gradientUnits="userSpaceOnUse">
<stop stop-color="#FF5C00"/>
<stop offset="1" stop-color="#FF0000" stop-opacity="0.45"/>
</linearGradient>
<linearGradient id="paint8_linear_672_245" x1="50.1578" y1="24.4438" x2="64.8477" y2="10.9464" gradientUnits="userSpaceOnUse">
<stop stop-color="#FF5C00"/>
<stop offset="1" stop-color="#FF0000"/>
</linearGradient>
<linearGradient id="paint9_linear_672_245" x1="55.6222" y1="18.6647" x2="64.4803" y2="10.5256" gradientUnits="userSpaceOnUse">
<stop stop-color="#FF5C00"/>
<stop offset="1" stop-color="#FF0000"/>
</linearGradient>
<linearGradient id="paint10_linear_672_245" x1="88.2733" y1="14.4071" x2="103.512" y2="19.7391" gradientUnits="userSpaceOnUse">
<stop stop-color="#DBFF00"/>
<stop offset="1" stop-color="#7F4108" stop-opacity="0.88"/>
</linearGradient>
<linearGradient id="paint11_linear_672_245" x1="46.6983" y1="25.938" x2="27.9275" y2="14.3448" gradientUnits="userSpaceOnUse">
<stop stop-color="#CF9B16"/>
<stop offset="1" stop-color="#8A0900"/>
</linearGradient>
<linearGradient id="paint12_linear_672_245" x1="88.5966" y1="19.7258" x2="69.7829" y2="18.76" gradientUnits="userSpaceOnUse">
<stop stop-color="#CF9B16"/>
<stop offset="1" stop-color="#8A0900"/>
</linearGradient>
<linearGradient id="paint13_linear_672_245" x1="106.357" y1="23.4873" x2="90.3014" y2="12.234" gradientUnits="userSpaceOnUse">
<stop stop-color="#CF9B16"/>
<stop offset="1" stop-color="#8A0900"/>
</linearGradient>
<linearGradient id="paint14_linear_672_245" x1="12.4364" y1="21.4139" x2="31.6581" y2="14.755" gradientUnits="userSpaceOnUse">
<stop stop-color="#D5D915"/>
<stop offset="1" stop-color="#A80303"/>
</linearGradient>
<linearGradient id="paint15_linear_672_245" x1="94.5402" y1="33.2156" x2="84.3747" y2="26.2224" gradientUnits="userSpaceOnUse">
<stop stop-color="#D5D915"/>
<stop offset="1" stop-color="#A80303"/>
</linearGradient>
<linearGradient id="paint16_linear_672_245" x1="37.2477" y1="14.6164" x2="52.3045" y2="17.5363" gradientUnits="userSpaceOnUse">
<stop stop-color="#D5D915"/>
<stop offset="1" stop-color="#A80303"/>
</linearGradient>
<linearGradient id="paint17_linear_672_245" x1="61.4848" y1="19.8487" x2="78.2826" y2="17.7142" gradientUnits="userSpaceOnUse">
<stop stop-color="#DBFF00"/>
<stop offset="1" stop-color="#7F4108" stop-opacity="0.88"/>
</linearGradient>
<linearGradient id="paint18_linear_672_245" x1="29.2512" y1="3.88865" x2="36.0486" y2="16.8671" gradientUnits="userSpaceOnUse">
<stop stop-color="#DBFF00"/>
<stop offset="1" stop-color="#7F4108" stop-opacity="0.88"/>
</linearGradient>
</defs>
</svg>
