<svg width="400" height="400" viewBox="0 0 400 400" fill="none" xmlns="http://www.w3.org/2000/svg">
<rect y="0.519531" width="399.692" height="399.481" fill="url(#paint0_linear_672_192)"/>
<ellipse cx="117.024" cy="137.273" rx="111.008" ry="59.0043" fill="#A1A1A1" fill-opacity="0.15"/>
<ellipse cx="219.394" cy="34.3725" rx="60.6131" ry="33.9394" fill="#A1A1A1" fill-opacity="0.15"/>
<ellipse cx="312.203" cy="92.3377" rx="84.172" ry="44.9784" fill="#A6A6A6" fill-opacity="0.2"/>
<ellipse cx="284.287" cy="169.957" rx="84.172" ry="45.0216" fill="#A6A6A6" fill-opacity="0.15"/>
<ellipse cx="93.5415" cy="54.9782" rx="93.5415" ry="51.8615" fill="#A6A6A6" fill-opacity="0.1"/>
<ellipse cx="345.403" cy="21.7747" rx="54.598" ry="18.658" fill="#A6A6A6" fill-opacity="0.15"/>
<ellipse cx="198.727" cy="78.2249" rx="84.1334" ry="44.9784" fill="#A6A6A6" fill-opacity="0.1"/>
<path d="M161.071 272.294C161.071 272.294 132.376 296.541 149.679 307.965C159.644 299.663 161.071 272.294 161.071 272.294Z" fill="url(#paint1_linear_672_192)"/>
<path d="M149.743 307.843C149.509 306.623 149.334 305.521 149.224 304.435M157.26 280.877C156.751 281.32 156.275 281.749 155.831 282.173M151.966 299.93L149.224 304.435M149.224 304.435C149.139 303.589 149.092 302.753 149.086 301.878M153.396 295.06L149.315 297.8M149.315 297.8C149.153 299.329 149.079 300.643 149.086 301.878M149.315 297.8C149.372 297.26 149.44 296.694 149.519 296.095M154.878 290.069L150.11 292.686M150.11 292.686C149.982 293.262 149.86 293.869 149.743 294.512C149.66 295.066 149.586 295.592 149.519 296.095M150.11 292.686C150.258 292.017 150.416 291.39 150.583 290.799M156.466 286.843L151.522 288.121M151.522 288.121C151.172 288.932 150.863 289.815 150.583 290.799M151.522 288.121C151.802 287.471 152.108 286.867 152.446 286.295M158.319 283.251H154.758M154.758 283.251C153.847 284.223 153.089 285.203 152.446 286.295M154.758 283.251C155.094 282.892 155.451 282.535 155.831 282.173M145.984 299.321L149.086 301.878M146.673 293.295L149.519 296.095M149.086 288.121L150.583 290.799M152.549 282.703L152.446 286.295M157.26 277.468L155.831 282.173" stroke="black" stroke-width="0.5"/>
<path d="M260.343 33.1602C260.343 33.1602 214.233 60.0552 242.036 72.7273C258.049 63.5177 260.343 33.1602 260.343 33.1602Z" fill="url(#paint2_linear_672_192)"/>
<path d="M242.139 72.5922C241.763 71.2383 241.483 70.0163 241.306 68.8111M254.219 42.6806C253.4 43.1721 252.636 43.648 251.922 44.1176M245.712 63.8145L241.306 68.8111M241.306 68.8111C241.168 67.8736 241.093 66.9464 241.084 65.9752M248.009 58.4129L241.451 61.4513M241.451 61.4513C241.191 63.148 241.072 64.6053 241.084 65.9752M241.451 61.4513C241.543 60.8531 241.652 60.2251 241.78 59.5607M250.391 52.8762L242.729 55.7796M242.729 55.7796C242.523 56.4183 242.327 57.092 242.139 57.8052C242.007 58.4187 241.887 59.0026 241.78 59.5607M242.729 55.7796C242.968 55.0368 243.22 54.3415 243.49 53.6864M252.943 49.2976L244.998 50.7155M244.998 50.7155C244.436 51.6155 243.939 52.5949 243.49 53.6864M244.998 50.7155C245.449 49.9949 245.94 49.3253 246.483 48.6899M255.921 45.3139H250.198M250.198 45.3139C248.735 46.3917 247.517 47.4785 246.483 48.6899M250.198 45.3139C250.738 44.9158 251.312 44.519 251.922 44.1176M236.1 63.1393L241.084 65.9752M237.205 56.4548L241.78 59.5607M241.084 50.7155L243.49 53.6864M246.648 44.7062L246.483 48.6899M254.219 38.8994L251.922 44.1176" stroke="black" stroke-width="0.5"/>
<path d="M335.685 72.7271C335.685 72.7271 389.241 97.2092 356.948 108.744C338.35 100.361 335.685 72.7271 335.685 72.7271Z" fill="url(#paint3_linear_672_192)"/>
<path d="M356.829 108.622C357.266 107.389 357.591 106.277 357.797 105.18M342.798 81.3936C343.75 81.841 344.637 82.2742 345.466 82.7017M352.679 100.632L357.797 105.18M357.797 105.18C357.957 104.326 358.044 103.482 358.054 102.598M350.011 95.7145L357.628 98.4803M357.628 98.4803C357.931 100.025 358.069 101.351 358.054 102.598M357.628 98.4803C357.521 97.9357 357.394 97.3641 357.246 96.7593M347.245 90.6745L356.144 93.3174M356.144 93.3174C356.383 93.8988 356.61 94.5121 356.829 95.1613C356.983 95.7198 357.122 96.2512 357.246 96.7593M356.144 93.3174C355.867 92.6413 355.574 92.0083 355.26 91.4121M344.28 87.417L353.508 88.7077M353.508 88.7077C354.161 89.5269 354.738 90.4185 355.26 91.4121M353.508 88.7077C352.985 88.0517 352.414 87.4421 351.784 86.8638M340.822 83.7906H347.469M347.469 83.7906C349.168 84.7718 350.583 85.761 351.784 86.8638M347.469 83.7906C346.841 83.4283 346.175 83.0671 345.466 82.7017M363.844 100.017L358.054 102.598M362.559 93.932L357.246 96.7593M358.054 88.7077L355.26 91.4121M351.592 83.2375L351.784 86.8638M342.798 77.9517L345.466 82.7017" stroke="black" stroke-width="0.5"/>
<path d="M211.529 213.16C211.529 213.16 248.104 238.349 226.05 250.216C213.348 241.591 211.529 213.16 211.529 213.16Z" fill="url(#paint4_linear_672_192)"/>
<path d="M225.969 250.09C226.267 248.822 226.49 247.677 226.63 246.549M216.387 222.076C217.037 222.537 217.643 222.982 218.209 223.422M223.135 241.869L226.63 246.549M226.63 246.549C226.739 245.671 226.799 244.802 226.806 243.893M221.313 236.81L226.515 239.656M226.515 239.656C226.722 241.245 226.816 242.61 226.806 243.893M226.515 239.656C226.442 239.096 226.355 238.508 226.254 237.885M219.424 231.625L225.502 234.344M225.502 234.344C225.665 234.942 225.82 235.573 225.969 236.241C226.074 236.816 226.169 237.363 226.254 237.885M225.502 234.344C225.312 233.649 225.112 232.997 224.898 232.384M217.399 228.273L223.701 229.601M223.701 229.601C224.147 230.444 224.541 231.362 224.898 232.384M223.701 229.601C223.344 228.927 222.954 228.299 222.524 227.704M215.038 224.543H219.577M219.577 224.543C220.738 225.552 221.704 226.57 222.524 227.704M219.577 224.543C219.148 224.17 218.693 223.798 218.209 223.422M230.76 241.237L226.806 243.893M229.883 234.977L226.254 237.885M226.806 229.601L224.898 232.384M222.393 223.973L222.524 227.704M216.387 218.535L218.209 223.422" stroke="black" stroke-width="0.5"/>
<path d="M196.462 97.0442C206.924 125.416 215.497 130.403 235.322 120.942C230.311 104.944 222.38 99.3333 196.462 97.0442Z" fill="url(#paint5_linear_672_192)"/>
<path d="M235.966 120.525C233.932 118.738 232.184 117.409 230.28 116.46M220.209 114.5L216.764 107.801M220.209 114.5C221.907 114.521 223.388 114.618 224.717 114.804M220.209 114.5L224.717 114.804M220.209 114.5C219.449 114.266 218.754 114.032 218.112 113.792M209.616 108.006C210.625 109.017 211.524 109.868 212.434 110.608M224.717 114.804L221.594 108.731M224.717 114.804C226.877 115.106 228.637 115.642 230.28 116.46M230.28 116.46L227.006 110.094M212.434 110.608L208.901 112.898M212.434 110.608C214.064 111.934 215.728 112.902 218.112 113.792M213.972 116.476L218.112 113.792M220.054 119.841L225.494 116.315L227.686 120.578L231.22 118.287" stroke="black" stroke-width="0.5"/>
<path d="M24.2974 229.177C21.8834 249.793 25.3972 255.977 39.8363 257.965C41.7169 246.678 38.7657 240.372 24.2974 229.177Z" fill="url(#paint6_linear_672_192)"/>
<path d="M40.3366 257.965C39.6844 256.144 39.0619 254.7 38.2337 253.42M32.9334 248.441V243.203M32.9334 248.441C33.9204 249.099 34.757 249.719 35.4783 250.334M32.9334 248.441L35.4783 250.334M32.9334 248.441C32.5593 248.015 32.2236 247.614 31.9202 247.229M28.6921 240.606C28.9776 241.582 29.2475 242.424 29.557 243.203M35.4783 250.334V245.584M35.4783 250.334C36.6508 251.332 37.5189 252.315 38.2337 253.42M38.2337 253.42V248.441M29.557 243.203H26.8027M29.557 243.203C30.1118 244.601 30.7937 245.801 31.9202 247.229M28.6921 247.229H31.9202M31.2369 251.515H35.4783V254.848H38.2337" stroke="black" stroke-width="0.5"/>
<path d="M115.914 211.688C118.549 231.653 114.714 237.642 98.9553 239.567C96.9028 228.636 100.124 222.53 115.914 211.688Z" fill="url(#paint7_linear_672_192)"/>
<path d="M98.4072 239.567C99.119 237.803 99.7984 236.405 100.702 235.165M106.487 230.344V225.271M106.487 230.344C105.41 230.981 104.497 231.582 103.709 232.176M106.487 230.344L103.709 232.176M106.487 230.344C106.895 229.931 107.262 229.543 107.593 229.17M111.116 222.756C110.804 223.702 110.51 224.516 110.172 225.271M103.709 232.176V227.577M103.709 232.176C102.43 233.143 101.482 234.095 100.702 235.165M100.702 235.165V230.344M110.172 225.271H113.178M110.172 225.271C109.566 226.625 108.822 227.787 107.593 229.17M111.116 229.17H107.593M108.338 233.32H103.709V236.549H100.702" stroke="black" stroke-width="0.5"/>
<path d="M297.834 161.904C287.995 187.028 280.988 191.934 265.996 185.255C270.848 171.152 277.389 165.757 297.834 161.904Z" fill="url(#paint8_linear_672_192)"/>
<path d="M265.517 184.943C267.215 183.26 268.662 181.992 270.209 181.039M278.216 178.622L281.303 172.619M278.216 178.622C276.883 178.764 275.717 178.955 274.665 179.212M278.216 178.622L274.665 179.212M278.216 178.622C278.825 178.366 279.383 178.114 279.9 177.861M286.893 172.274C286.044 173.216 285.29 174.012 284.534 174.714M274.665 179.212L277.464 173.769M274.665 179.212C272.954 179.628 271.544 180.216 270.209 181.039M270.209 181.039L273.143 175.333M284.534 174.714L287.17 176.422M284.534 174.714C283.18 175.971 281.82 176.923 279.9 177.861M282.99 179.864L279.9 177.861M278.028 183.197L273.969 180.565L272.004 184.385L269.367 182.676" stroke="black" stroke-width="0.5"/>
<path d="M200.5 182.165C205.372 172.755 207.444 167.077 207.324 154.627C211.955 153.087 213.161 155.071 214.78 159.695C215.213 163.654 215.131 165.873 214.78 169.831C212.385 174.85 208.924 177.529 200.5 182.165Z" fill="url(#paint9_linear_672_192)"/>
<path d="M200.5 182.165C201.689 181.209 202.728 180.363 203.662 179.559M209.87 172.468C210.086 172.078 210.277 171.717 210.448 171.378M209.87 172.468L212.839 171.378M209.87 172.468C209.308 173.361 208.757 174.156 208.19 174.892M211.952 165.844C211.953 165.281 211.94 164.782 211.907 164.329M211.952 165.844C211.838 167.218 211.717 168.243 211.259 169.524M211.952 165.844L213.88 162.511M210.448 160.39C210.999 161.127 211.359 161.781 211.588 162.511M209.87 162.511L211.907 164.329M211.907 164.329C211.856 163.638 211.758 163.053 211.588 162.511M209.445 165.844L211.373 167.966C211.534 168.381 211.364 169.178 211.259 169.524M211.259 169.524C211.061 170.078 210.799 170.68 210.448 171.378M211.259 169.524L213.533 167.619M208.867 168.528L210.448 171.378M207.826 172.078L207.237 176.061M207.237 176.061C207.562 175.685 207.878 175.298 208.19 174.892M207.237 176.061C206.557 176.845 205.841 177.578 205.05 178.317M205.435 175.671L203.662 179.559M203.662 179.559C204.152 179.137 204.612 178.726 205.05 178.317M211.907 157.273L211.588 162.511M210.448 174.416L208.19 174.892M207.237 177.316L205.05 178.317" stroke="black" stroke-width="0.5"/>
<path d="M91.0742 375.411C95.9463 366.002 98.0181 360.324 97.8981 347.874C102.529 346.334 103.735 348.317 105.354 352.942C105.788 356.9 105.705 359.119 105.354 363.078C102.959 368.096 99.4982 370.776 91.0742 375.411Z" fill="url(#paint10_linear_672_192)"/>
<path d="M91.0742 375.411C92.2634 374.456 93.3027 373.61 94.236 372.805M100.444 365.714C100.66 365.325 100.852 364.963 101.022 364.624M100.444 365.714L103.413 364.624M100.444 365.714C99.8825 366.607 99.3309 367.403 98.7647 368.139M102.526 359.091C102.527 358.528 102.514 358.029 102.481 357.576M102.526 359.091C102.412 360.464 102.292 361.49 101.833 362.771M102.526 359.091L104.454 355.758M101.022 353.636C101.573 354.373 101.933 355.027 102.162 355.758M100.444 355.758L102.481 357.576M102.481 357.576C102.431 356.884 102.333 356.3 102.162 355.758M100.02 359.091L101.948 361.212C102.108 361.628 101.938 362.424 101.833 362.771M101.833 362.771C101.635 363.325 101.374 363.926 101.022 364.624M101.833 362.771L104.107 360.866M99.4413 361.775L101.022 364.624M98.4002 365.325L97.8108 369.307M97.8108 369.307C98.136 368.932 98.4526 368.544 98.7647 368.139M97.8108 369.307C97.1317 370.092 96.4153 370.825 95.6241 371.564M96.0096 368.918L94.236 372.805M94.236 372.805C94.7258 372.383 95.1863 371.973 95.6241 371.564M102.481 350.52L102.162 355.758M101.022 367.662L98.7647 368.139M97.8108 370.563L95.6241 371.564" stroke="black" stroke-width="0.5"/>
<path d="M342.008 169.957C348.942 159.327 351.891 152.914 351.72 138.85C358.311 137.11 360.027 139.35 362.332 144.575C362.949 149.046 362.831 151.553 362.332 156.025C358.923 161.694 353.998 164.72 342.008 169.957Z" fill="url(#paint11_linear_672_192)"/>
<path d="M342.008 169.957C343.7 168.878 345.18 167.922 346.508 167.013M355.343 159.003C355.651 158.563 355.924 158.154 356.167 157.772M355.343 159.003L359.569 157.772M355.343 159.003C354.544 160.012 353.759 160.91 352.954 161.741M358.307 151.521C358.308 150.885 358.29 150.321 358.243 149.809M358.307 151.521C358.144 153.072 357.973 154.231 357.321 155.678M358.307 151.521L361.051 147.755M356.167 145.359C356.95 146.192 357.463 146.931 357.789 147.755M355.343 147.755L358.243 149.809M358.243 149.809C358.171 149.028 358.032 148.368 357.789 147.755M354.74 151.521L357.484 153.917C357.712 154.387 357.471 155.286 357.321 155.678M357.321 155.678C357.039 156.303 356.667 156.983 356.167 157.772M357.321 155.678L360.557 153.526M353.917 154.553L356.167 157.772M352.435 158.563L351.596 163.062M351.596 163.062C352.059 162.637 352.509 162.2 352.954 161.741M351.596 163.062C350.629 163.948 349.61 164.776 348.484 165.611M349.032 162.622L346.508 167.013M346.508 167.013C347.205 166.536 347.861 166.073 348.484 165.611M358.243 141.838L357.789 147.755M356.167 161.203L352.954 161.741M351.596 164.48L348.484 165.611" stroke="black" stroke-width="0.5"/>
<path d="M127.561 80.3707C109.487 85.1544 99.203 86.1268 79.9847 77.9736C74.2864 87.2113 76.4989 91.1278 82.5114 97.6301C88.3391 101.094 91.8392 102.317 98.2273 104.052C107.722 101.948 114.35 96.0133 127.561 80.3707Z" fill="url(#paint12_linear_672_192)"/>
<path d="M127.561 80.3708C125.23 82.3882 123.175 84.1444 121.26 85.6932M105.827 94.8922C105.068 95.1218 104.37 95.3157 103.723 95.4773M105.827 94.8922L102.014 100.75M105.827 94.8922C107.613 94.2199 109.24 93.5075 110.786 92.7249M94.0686 95.288C93.1947 94.9333 92.4301 94.5893 91.7514 94.2293M94.0686 95.288C96.2798 95.9067 97.9558 96.2913 100.269 96.0919M94.0686 95.288L87.5218 97.4282M86.6866 88.5154C87.4354 90.1967 88.1921 91.4054 89.1604 92.3738M90.3891 88.5838L91.7514 94.2293M91.7514 94.2293C90.7154 93.6799 89.8796 93.0931 89.1604 92.3738M95.8606 89.7603L97.7711 95.3564C98.3004 95.9744 99.657 96.1042 100.269 96.0919M100.269 96.0919C101.27 96.0057 102.389 95.8102 103.723 95.4773M100.269 96.0919L95.6902 99.8993M100.436 90.1852L103.723 95.4773M106.684 90.1381L113.28 91.3616M113.28 91.3616C112.466 91.8407 111.638 92.2935 110.786 92.7249M113.28 91.3616C114.983 90.3608 116.631 89.2451 118.343 87.9682M113.964 87.142L121.26 85.6932M121.26 85.6932C120.255 86.506 119.29 87.2618 118.343 87.9682M80.8107 89.7585L89.1604 92.3738M108.434 97.4021L110.786 92.7249M115.227 92.157L118.343 87.9682" stroke="black" stroke-width="0.5"/>
<path d="M379.487 284.935C379.487 284.935 340.692 312.36 364.085 325.281C377.557 315.89 379.487 284.935 379.487 284.935Z" fill="url(#paint13_linear_672_192)"/>
<path d="M364.17 325.143C363.853 323.763 363.617 322.517 363.468 321.288M374.333 294.643C373.644 295.144 373.001 295.629 372.4 296.108M367.176 316.193L363.468 321.288M363.468 321.288C363.352 320.332 363.289 319.386 363.282 318.396M369.108 310.685L363.59 313.783M363.59 313.783C363.371 315.513 363.271 316.999 363.282 318.396M363.59 313.783C363.668 313.173 363.76 312.533 363.867 311.855M371.112 305.039L364.665 308M364.665 308C364.492 308.651 364.328 309.338 364.17 310.065C364.058 310.691 363.957 311.286 363.867 311.855M364.665 308C364.866 307.242 365.079 306.533 365.306 305.865M373.259 301.39L366.575 302.836M366.575 302.836C366.102 303.754 365.684 304.752 365.306 305.865M366.575 302.836C366.954 302.101 367.368 301.418 367.824 300.77M375.764 297.328H370.95M370.95 297.328C369.719 298.427 368.694 299.535 367.824 300.77M370.95 297.328C371.404 296.922 371.887 296.517 372.4 296.108M359.088 315.504L363.282 318.396M360.018 308.688L363.867 311.855M363.282 302.836L365.306 305.865M367.963 296.708L367.824 300.77M374.333 290.787L372.4 296.108" stroke="black" stroke-width="0.5"/>
<path d="M179.793 196.671C168.845 198.031 162.536 197.934 150.301 192.79C147.196 197.066 148.738 199.14 152.743 202.716C156.497 204.769 158.714 205.576 162.737 206.8C168.507 206.289 172.335 203.71 179.793 196.671Z" fill="url(#paint14_linear_672_192)"/>
<path d="M179.792 196.671C178.442 197.543 177.252 198.301 176.139 198.964M167.019 202.67C166.561 202.741 166.139 202.799 165.746 202.842M167.019 202.67L164.927 205.37M167.019 202.67C168.092 202.436 169.065 202.174 169.985 201.872M159.775 202.203C159.219 201.977 158.731 201.762 158.296 201.545M159.775 202.203C161.168 202.636 162.22 202.922 163.64 202.953M159.775 202.203L155.827 202.898M154.912 198.415C155.449 199.294 155.971 199.938 156.612 200.475M157.201 198.658L158.296 201.545M158.296 201.545C157.631 201.213 157.089 200.874 156.612 200.475M160.634 199.553L162.064 202.446C162.419 202.783 163.263 202.925 163.64 202.953M163.64 202.953C164.254 202.967 164.937 202.933 165.746 202.842M163.64 202.953L160.983 204.589M163.478 200.023L165.746 202.842M167.335 200.352L171.464 201.334M171.464 201.334C170.983 201.526 170.492 201.705 169.985 201.872M171.464 201.334C172.471 200.932 173.439 200.47 174.439 199.931M171.698 199.273L176.139 198.964M176.139 198.964C175.555 199.312 174.992 199.633 174.439 199.931M151.338 198.702L156.612 200.475M168.742 204.067L169.985 201.872M172.702 201.84L174.439 199.931" stroke="black" stroke-width="0.5"/>
<path d="M94.5258 136.104C91.1353 163.013 96.0705 171.085 116.35 173.68C118.992 158.947 114.847 150.717 94.5258 136.104Z" fill="url(#paint15_linear_672_192)"/>
<path d="M117.055 173.679C116.139 171.302 115.265 169.417 114.102 167.746M106.658 161.248V154.411M106.658 161.248C108.044 162.107 109.219 162.917 110.232 163.718M106.658 161.248L110.232 163.718M106.658 161.248C106.132 160.692 105.661 160.168 105.234 159.666M100.7 151.021C101.101 152.296 101.481 153.394 101.915 154.411M110.232 163.718V157.519M110.232 163.718C111.879 165.021 113.098 166.304 114.102 167.746M114.102 167.746V161.248M101.915 154.411H98.0469M101.915 154.411C102.695 156.235 103.652 157.802 105.234 159.666M100.7 159.666H105.234M104.275 165.26H110.232V169.611H114.102" stroke="black" stroke-width="0.5"/>
<path d="M65.8594 196.277C59.5437 185.793 56.858 179.467 57.0136 165.595C51.0109 163.879 49.4476 166.089 47.3481 171.242C46.7864 175.652 46.8937 178.125 47.3481 182.535C50.4534 188.127 54.9394 191.112 65.8594 196.277Z" fill="url(#paint16_linear_672_192)"/>
<path d="M65.8594 196.277C64.3179 195.213 62.9706 194.27 61.7608 193.374M53.7136 185.473C53.4336 185.039 53.185 184.636 52.9639 184.259M53.7136 185.473L49.865 184.259M53.7136 185.473C54.4413 186.468 55.1562 187.354 55.8902 188.174M51.0146 178.093C51.0133 177.466 51.0297 176.91 51.0726 176.405M51.0146 178.093C51.1624 179.624 51.3183 180.766 51.9123 182.193M51.0146 178.093L48.5154 174.379M52.9639 172.016C52.2501 172.837 51.7833 173.566 51.4861 174.379M53.7136 174.379L51.0726 176.405M51.0726 176.405C51.138 175.635 51.2653 174.984 51.4861 174.379M54.2634 178.093L51.7643 180.457C51.5559 180.92 51.7761 181.807 51.9123 182.193M51.9123 182.193C52.1693 182.81 52.5082 183.481 52.9639 184.259M51.9123 182.193L48.9653 180.071M55.0132 181.084L52.9639 184.259M56.3627 185.039L57.1267 189.476M57.1267 189.476C56.7052 189.058 56.2948 188.626 55.8902 188.174M57.1267 189.476C58.0071 190.351 58.9358 191.167 59.9614 191.991M59.4616 189.042L61.7608 193.374M61.7608 193.374C61.1259 192.903 60.5288 192.446 59.9614 191.991M51.0726 168.543L51.4861 174.379M52.9639 187.643L55.8902 188.174M57.1267 190.875L59.9614 191.991" stroke="black" stroke-width="0.5"/>
<path d="M325.589 11.9458C341.906 41.1377 292.176 55.2684 300.019 50.4513C307.862 45.6342 313.62 36.4456 325.589 11.9458Z" fill="url(#paint17_linear_672_192)"/>
<path d="M299.479 51.0768C303.302 49.3944 306.139 47.9893 308.611 46.4226M315.916 40.4426V35.0908M315.916 40.4426L319.448 38.9135M315.916 40.4426C313.402 42.9531 311.207 44.777 308.611 46.4226M315.916 40.4426L308.611 46.4226M315.916 40.4426C318.161 38.0979 319.558 36.2194 320.617 34.0247M308.611 46.4226L310.376 41.9717M320.617 34.0247L324.562 32.1021M320.617 34.0247L319.448 30.573M320.617 34.0247C321.231 32.753 321.731 31.3751 322.216 29.7389M320.617 34.0247L322.216 29.7389M322.216 29.7389C322.329 29.3596 322.44 28.9663 322.552 28.5573V22.2324M322.216 29.7389L326.023 26.4027" stroke="black" stroke-width="0.5"/>
<path d="M376.558 211.584C363.4 215.228 355.921 216.008 341.992 210.094C337.808 216.958 339.397 219.841 343.736 224.613C347.955 227.139 350.493 228.023 355.128 229.268C362.038 227.656 366.883 223.228 376.558 211.584Z" fill="url(#paint18_linear_672_192)"/>
<path d="M376.557 211.585C374.853 213.09 373.351 214.401 371.953 215.557M360.693 222.45C360.14 222.624 359.632 222.772 359.161 222.895M360.693 222.45L357.894 226.804M360.693 222.45C361.994 221.942 363.18 221.406 364.307 220.818M352.145 222.812C351.512 222.555 350.958 222.306 350.466 222.043M352.145 222.812C353.75 223.257 354.966 223.531 356.648 223.37M352.145 222.812L347.377 224.434M346.812 217.849C347.349 219.088 347.893 219.977 348.592 220.687M349.503 217.877L350.466 222.043M350.466 222.043C349.716 221.643 349.111 221.215 348.592 220.687M353.474 218.715L354.836 222.841C355.218 223.295 356.203 223.383 356.648 223.37M356.648 223.37C357.376 223.3 358.19 223.149 359.161 222.895M356.648 223.37L353.302 226.212M356.797 219.002L359.161 222.895M361.338 218.93L366.127 219.795M366.127 219.795C365.532 220.155 364.929 220.494 364.307 220.818M366.127 219.795C367.368 219.045 368.572 218.211 369.822 217.256M366.643 216.672L371.953 215.557M371.953 215.557C371.219 216.164 370.513 216.729 369.822 217.256M342.536 218.803L348.592 220.687M362.576 224.29L364.307 220.818M367.538 220.372L369.822 217.256" stroke="black" stroke-width="0.5"/>
<path d="M320.955 287.899C308.547 291.11 301.482 291.745 288.26 286.137C284.364 292.416 285.893 295.091 290.038 299.538C294.05 301.913 296.457 302.757 300.85 303.956C307.369 302.548 311.911 298.522 320.955 287.899Z" fill="url(#paint19_linear_672_192)"/>
<path d="M320.955 287.899C319.357 289.267 317.949 290.458 316.637 291.508M306.052 297.735C305.531 297.889 305.052 298.019 304.608 298.128M306.052 297.735L303.445 301.716M306.052 297.735C307.278 297.282 308.395 296.8 309.455 296.271M297.974 297.973C297.372 297.729 296.846 297.492 296.379 297.245M297.974 297.973C299.494 298.4 300.647 298.667 302.236 298.537M297.974 297.973L293.48 299.413M292.887 293.338C293.405 294.486 293.927 295.311 294.595 295.974M295.431 293.395L296.379 297.245M296.379 297.245C295.666 296.868 295.091 296.466 294.595 295.974M299.193 294.211L300.518 298.029C300.883 298.452 301.815 298.544 302.236 298.537M302.236 298.537C302.923 298.481 303.692 298.351 304.608 298.128M302.236 298.537L299.098 301.119M302.338 294.513L304.608 298.128M306.631 294.498L311.166 295.349M311.166 295.349C310.607 295.673 310.04 295.98 309.455 296.271M311.166 295.349C312.333 294.672 313.464 293.916 314.637 293.051M311.627 292.476L316.637 291.508M316.637 291.508C315.948 292.06 315.286 292.572 314.637 293.051M288.852 294.169L294.595 295.974M307.849 299.452L309.455 296.271M312.505 295.896L314.637 293.051" stroke="black" stroke-width="0.5"/>
<path d="M226.316 309.697C212.729 332.771 254.142 343.941 247.61 340.133C241.079 336.325 236.284 329.062 226.316 309.697Z" fill="url(#paint20_linear_672_192)"/>
<path d="M248.061 340.628C244.876 339.298 242.514 338.187 240.456 336.949M234.371 332.222V327.992M234.371 332.222L231.431 331.014M234.371 332.222C236.466 334.207 238.293 335.648 240.456 336.949M234.371 332.222L240.456 336.949M234.371 332.222C232.502 330.369 231.339 328.884 230.457 327.149M240.456 336.949L238.985 333.431M230.457 327.149L227.172 325.63M230.457 327.149L231.431 324.421M230.457 327.149C229.946 326.144 229.529 325.055 229.125 323.762M230.457 327.149L229.125 323.762M229.125 323.762C229.032 323.462 228.939 323.151 228.845 322.828V317.828M229.125 323.762L225.955 321.124" stroke="black" stroke-width="0.5"/>
<path d="M282.613 85.4546C259.883 111.606 329.163 124.264 318.236 119.949C307.31 115.634 299.289 107.402 282.613 85.4546Z" fill="url(#paint21_linear_672_192)"/>
<path d="M318.99 120.51C313.663 119.003 309.712 117.744 306.268 116.34M296.09 110.983V106.189M296.09 110.983L291.17 109.613M296.09 110.983C299.593 113.232 302.65 114.866 306.268 116.34M296.09 110.983L306.268 116.34M296.09 110.983C292.963 108.883 291.016 107.2 289.541 105.234M306.268 116.34L303.808 112.353M289.541 105.234L284.046 103.511M289.541 105.234L291.17 102.142M289.541 105.234C288.686 104.095 287.99 102.86 287.314 101.394M289.541 105.234L287.314 101.394M287.314 101.394C287.157 101.055 287.001 100.702 286.845 100.336V94.6699M287.314 101.394L282.01 98.4058" stroke="black" stroke-width="0.5"/>
<path d="M335.435 326.784C344.648 348.682 316.568 359.282 320.997 355.668C325.426 352.055 328.677 345.162 335.435 326.784Z" fill="url(#paint22_linear_672_192)"/>
<path d="M320.691 356.138C322.851 354.876 324.452 353.822 325.848 352.646M329.973 348.161V344.146M329.973 348.161L331.967 347.014M329.973 348.161C328.553 350.044 327.314 351.412 325.848 352.646M329.973 348.161L325.848 352.646M329.973 348.161C331.241 346.402 332.03 344.993 332.628 343.346M325.848 352.646L326.845 349.308M332.628 343.346L334.855 341.904M332.628 343.346L331.967 340.757M332.628 343.346C332.974 342.392 333.256 341.359 333.53 340.131M332.628 343.346L333.53 340.131M333.53 340.131C333.594 339.847 333.657 339.552 333.72 339.245V334.5M333.53 340.131L335.68 337.629" stroke="black" stroke-width="0.5"/>
<path d="M53.7088 106.84C67.2118 135.083 26.0566 148.755 32.5473 144.094C39.0381 139.434 43.8029 130.544 53.7088 106.84Z" fill="url(#paint23_linear_672_192)"/>
<path d="M32.0996 144.699C35.2642 143.071 37.6115 141.712 39.6573 140.196M45.7034 134.41V129.232M45.7034 134.41L48.6257 132.931M45.7034 134.41C43.6223 136.839 41.8061 138.604 39.6573 140.196M45.7034 134.41L39.6573 140.196M45.7034 134.41C47.5608 132.142 48.7172 130.324 49.5936 128.201M39.6573 140.196L41.1184 135.89M49.5936 128.201L52.858 126.341M49.5936 128.201L48.6257 124.862M49.5936 128.201C50.1014 126.971 50.5152 125.638 50.9169 124.055M49.5936 128.201L50.9169 124.055M50.9169 124.055C51.01 123.688 51.1024 123.307 51.1953 122.911V116.792M50.9169 124.055L54.0672 120.827" stroke="black" stroke-width="0.5"/>
<path d="M37.6389 28.0518C59.5038 37.9214 71.749 43.4627 67.9457 67.8786C46.2134 59.7457 37.3546 52.6923 37.6389 28.0518Z" fill="url(#paint24_linear_672_192)"/>
<path d="M67.6621 67.8786C67.0813 66.0961 66.4254 64.3964 65.6417 62.7158M40.1031 33.1377C41.5535 34.4761 42.9257 35.7557 44.2248 36.9824M44.8713 34.0766L47.1635 39.7885M47.1635 39.7885C46.2278 38.8841 45.249 37.9497 44.2248 36.9824M47.1635 39.7885C48.3732 40.9579 49.5109 42.0773 50.5818 43.1531M51.4984 37.7542L54.068 46.7524M54.068 46.7524C52.9913 45.6053 51.8321 44.4089 50.5818 43.1531M54.068 46.7524C55.2721 48.0353 56.3728 49.2564 57.3818 50.4299M59.1762 43.1531L60.3037 54.0292M60.3037 54.0292C59.4241 52.872 58.4549 51.6779 57.3818 50.4299M60.3037 54.0292C61.1588 55.1543 61.9291 56.2445 62.6274 57.3155M65.6417 51.4471V62.7158M65.6417 62.7158C64.8042 60.92 63.8209 59.1458 62.6274 57.3155M40.1031 37.7542L44.2248 36.9824M44.2248 44.7962L50.5818 43.1531M49.3972 52.6208L57.3818 50.4299M56.3475 58.8804L62.6274 57.3155" stroke="black" stroke-width="0.5"/>
<path d="M54.3626 320.693C64.6961 338.875 33.201 347.676 38.1683 344.676C43.1355 341.675 46.7819 335.952 54.3626 320.693Z" fill="url(#paint25_linear_672_192)"/>
<path d="M37.8262 345.065C40.2479 344.017 42.0443 343.142 43.6099 342.166M48.2368 338.442V335.108M48.2368 338.442L50.4732 337.489M48.2368 338.442C46.6442 340.005 45.2543 341.141 43.6099 342.166M48.2368 338.442L43.6099 342.166M48.2368 338.442C49.6583 336.981 50.5432 335.811 51.2139 334.444M43.6099 342.166L44.728 339.394M51.2139 334.444L53.712 333.247M51.2139 334.444L50.4732 332.294M51.2139 334.444C51.6025 333.652 51.9192 332.794 52.2266 331.775M51.2139 334.444L52.2266 331.775M52.2266 331.775C52.2978 331.539 52.3686 331.294 52.4396 331.039V327.1M52.2266 331.775L54.6374 329.697" stroke="black" stroke-width="0.5"/>
<path d="M111.672 24.4155C91.4815 53.5791 153.021 67.6962 143.315 62.8837C133.609 58.0713 126.485 48.8916 111.672 24.4155Z" fill="url(#paint26_linear_672_192)"/>
<path d="M143.984 63.5088C139.252 61.8281 135.742 60.4243 132.683 58.8591M123.643 52.8849V47.5383M123.643 52.8849L119.273 51.3573M123.643 52.8849C126.755 55.393 129.47 57.2151 132.683 58.8591M123.643 52.8849L132.683 58.8591M123.643 52.8849C120.865 50.5425 119.136 48.6658 117.826 46.4732M132.683 58.8591L130.499 54.4125M117.826 46.4732L112.944 44.5525M117.826 46.4732L119.273 43.0248M117.826 46.4732C117.066 45.2027 116.448 43.8262 115.847 42.1916M117.826 46.4732L115.847 42.1916M115.847 42.1916C115.708 41.8126 115.569 41.4198 115.431 41.0112V34.6924M115.847 42.1916L111.136 38.8586" stroke="black" stroke-width="0.5"/>
<path d="M169.71 72.7271C150.141 82.5967 139.182 88.138 142.586 112.554C162.036 104.421 169.965 97.3676 169.71 72.7271Z" fill="url(#paint27_linear_672_192)"/>
<path d="M142.838 112.554C143.358 110.771 143.945 109.072 144.646 107.391M167.503 77.813C166.205 79.1514 164.977 80.431 163.814 81.6577M163.236 78.7519L161.184 84.4638M161.184 84.4638C162.022 83.5593 162.898 82.625 163.814 81.6577M161.184 84.4638C160.102 85.6332 159.083 86.7526 158.125 87.8284M157.304 82.4295L155.005 91.4277M155.005 91.4277C155.968 90.2806 157.006 89.0842 158.125 87.8284M155.005 91.4277C153.927 92.7106 152.942 93.9317 152.039 95.1052M150.433 87.8284L149.424 98.7045M149.424 98.7045C150.211 97.5473 151.078 96.3532 152.039 95.1052M149.424 98.7045C148.658 99.8296 147.969 100.92 147.344 101.991M144.646 96.1224V107.391M144.646 107.391C145.396 105.595 146.276 103.821 147.344 101.991M167.503 82.4295L163.814 81.6577M163.814 89.4715L158.125 87.8284M159.185 97.2961L152.039 95.1052M152.964 103.556L147.344 101.991" stroke="black" stroke-width="0.5"/>
<path d="M209.195 0C189.626 9.86968 178.666 15.4109 182.07 39.8268C201.521 31.6939 209.449 24.6405 209.195 0Z" fill="url(#paint28_linear_672_192)"/>
<path d="M182.322 39.8268C182.842 38.0443 183.429 36.3447 184.131 34.664M206.988 5.08594C205.69 6.42433 204.461 7.70392 203.299 8.93069M202.72 6.02488L200.669 11.7368M200.669 11.7368C201.506 10.8323 202.382 9.89791 203.299 8.93069M200.669 11.7368C199.586 12.9062 198.568 14.0256 197.609 15.1013M196.789 9.70241L194.489 18.7006M194.489 18.7006C195.453 17.5536 196.49 16.3572 197.609 15.1013M194.489 18.7006C193.411 19.9835 192.426 21.2046 191.523 22.3781M189.917 15.1013L188.908 25.9774M188.908 25.9774C189.695 24.8202 190.563 23.6261 191.523 22.3781M188.908 25.9774C188.143 27.1025 187.453 28.1927 186.828 29.2637M184.131 23.3953V34.664M184.131 34.664C184.88 32.8682 185.76 31.0941 186.828 29.2637M206.988 9.70241L203.299 8.93069M203.299 16.7445L197.609 15.1013M198.669 24.569L191.523 22.3781M192.449 30.8286L186.828 29.2637" stroke="black" stroke-width="0.5"/>
<path d="M389.644 21.645C370.075 31.5147 359.115 37.0559 362.519 61.4719C381.97 53.3389 389.898 46.2855 389.644 21.645Z" fill="url(#paint29_linear_672_192)"/>
<path d="M362.771 61.4719C363.291 59.6893 363.878 57.9897 364.58 56.309M387.437 26.731C386.139 28.0694 384.911 29.3489 383.748 30.5757M383.169 27.6699L381.118 33.3818M381.118 33.3818C381.955 32.4773 382.831 31.5429 383.748 30.5757M381.118 33.3818C380.035 34.5512 379.017 35.6706 378.058 36.7464M377.238 31.3474L374.938 40.3456M374.938 40.3456C375.902 39.1986 376.939 38.0022 378.058 36.7464M374.938 40.3456C373.861 41.6285 372.875 42.8497 371.972 44.0232M370.366 36.7464L369.357 47.6224M369.357 47.6224C370.144 46.4652 371.012 45.2711 371.972 44.0232M369.357 47.6224C368.592 48.7475 367.903 49.8378 367.278 50.9087M364.58 45.0403V56.309M364.58 56.309C365.329 54.5132 366.209 52.7391 367.278 50.9087M387.437 31.3474L383.748 30.5757M383.748 38.3895L378.058 36.7464M379.119 46.214L371.972 44.0232M372.898 52.4736L367.278 50.9087" stroke="black" stroke-width="0.5"/>
<path d="M47.043 10.1253C15.1284 -13.3298 -0.320339 58.1579 4.94608 46.8833C10.2125 35.6086 20.2581 27.332 47.043 10.1253Z" fill="url(#paint30_linear_672_192)"/>
<path d="M4.26221 47.6611C6.10151 42.1642 7.63772 38.0868 9.35053 34.5333M15.8882 24.031H21.7393M15.8882 24.031L17.56 18.9549M15.8882 24.031C13.1436 27.6459 11.1496 30.8007 9.35053 34.5333M15.8882 24.031L9.35053 34.5333M15.8882 24.031C18.4516 20.8046 20.5054 18.7958 22.9047 17.2736M9.35053 34.5333L14.2165 31.9952M22.9047 17.2736L25.0067 11.6033M22.9047 17.2736L26.6784 18.9549M22.9047 17.2736C24.2951 16.3915 25.8014 15.6727 27.5903 14.975M22.9047 17.2736L27.5903 14.975M27.5903 14.975C28.005 14.8133 28.4349 14.6527 28.882 14.4914H35.7969M27.5903 14.975L31.2376 9.50283" stroke="black" stroke-width="0.5"/>
<path d="M169.732 358.846C192.251 345.327 203.151 386.53 199.435 380.032C195.719 373.534 188.631 368.763 169.732 358.846Z" fill="url(#paint31_linear_672_192)"/>
<path d="M199.918 380.48C198.621 377.312 197.537 374.962 196.328 372.914M191.715 366.86H187.587M191.715 366.86L190.536 363.935M191.715 366.86C193.652 368.944 195.059 370.762 196.328 372.914M191.715 366.86L196.328 372.914M191.715 366.86C189.906 365.001 188.457 363.843 186.764 362.966M196.328 372.914L192.895 371.451M186.764 362.966L185.281 359.698M186.764 362.966L184.102 363.935M186.764 362.966C185.783 362.457 184.721 362.043 183.458 361.641M186.764 362.966L183.458 361.641M183.458 361.641C183.166 361.548 182.862 361.455 182.547 361.362H177.668M183.458 361.641L180.885 358.487" stroke="black" stroke-width="0.5"/>
<path d="M45.588 77.4013C35.749 102.525 28.7416 107.432 13.7499 100.752C18.6018 86.65 25.1424 81.2548 45.588 77.4013Z" fill="url(#paint32_linear_672_192)"/>
<path d="M13.2712 100.441C14.9689 98.7584 16.4156 97.4899 17.9626 96.5368M25.9695 94.1199L29.0565 88.1169M25.9695 94.1199C24.6371 94.2616 23.471 94.4532 22.4187 94.7096M25.9695 94.1199L22.4187 94.7096M25.9695 94.1199C26.5788 93.8637 27.1366 93.6121 27.6537 93.3594M34.6467 87.7717C33.798 88.7136 33.0439 89.5102 32.2882 90.2117M22.4187 94.7096L25.2176 89.2667M22.4187 94.7096C20.708 95.1263 19.298 95.7141 17.9626 96.5368M17.9626 96.5368L20.8965 90.8315M32.2882 90.2117L34.9244 91.9205M32.2882 90.2117C30.9335 91.4692 29.5736 92.4215 27.6537 93.3594M30.7434 95.3622L27.6537 93.3594M25.782 98.6948L21.7225 96.0634L19.7581 99.8835L17.1207 98.174" stroke="black" stroke-width="0.5"/>
<rect x="3.93359" y="3.1167" width="395.759" height="396.883" fill="url(#paint33_linear_672_192)"/>
<defs>
<linearGradient id="paint0_linear_672_192" x1="199.846" y1="0.519531" x2="199.846" y2="400" gradientUnits="userSpaceOnUse">
<stop stop-color="#6A8385"/>
<stop offset="1" stop-color="#A0D8DC"/>
</linearGradient>
<linearGradient id="paint1_linear_672_192" x1="152.601" y1="272.294" x2="152.601" y2="307.965" gradientUnits="userSpaceOnUse">
<stop stop-color="#D68E02" stop-opacity="0.84"/>
<stop offset="1" stop-color="#C22301"/>
</linearGradient>
<linearGradient id="paint2_linear_672_192" x1="246.732" y1="33.1602" x2="246.732" y2="72.7273" gradientUnits="userSpaceOnUse">
<stop stop-color="#D68E02" stop-opacity="0.84"/>
<stop offset="1" stop-color="#C22301"/>
</linearGradient>
<linearGradient id="paint3_linear_672_192" x1="351.494" y1="72.7271" x2="351.494" y2="108.744" gradientUnits="userSpaceOnUse">
<stop stop-color="#D68E02" stop-opacity="0.84"/>
<stop offset="1" stop-color="#C22301"/>
</linearGradient>
<linearGradient id="paint4_linear_672_192" x1="222.325" y1="213.16" x2="222.325" y2="250.216" gradientUnits="userSpaceOnUse">
<stop stop-color="#D68E02" stop-opacity="0.84"/>
<stop offset="1" stop-color="#C22301"/>
</linearGradient>
<linearGradient id="paint5_linear_672_192" x1="206.303" y1="90.6652" x2="228.708" y2="125.229" gradientUnits="userSpaceOnUse">
<stop stop-color="#FF5C00"/>
<stop offset="1" stop-color="#FF0000" stop-opacity="0.45"/>
</linearGradient>
<linearGradient id="paint6_linear_672_192" x1="31.9708" y1="229.177" x2="31.9708" y2="257.965" gradientUnits="userSpaceOnUse">
<stop stop-color="#FF5C00"/>
<stop offset="1" stop-color="#FF0000" stop-opacity="0.45"/>
</linearGradient>
<linearGradient id="paint7_linear_672_192" x1="107.54" y1="211.688" x2="107.54" y2="239.567" gradientUnits="userSpaceOnUse">
<stop stop-color="#FF5C00"/>
<stop offset="1" stop-color="#FF0000" stop-opacity="0.45"/>
</linearGradient>
<linearGradient id="paint8_linear_672_192" x1="290.49" y1="157.143" x2="270.412" y2="188.117" gradientUnits="userSpaceOnUse">
<stop stop-color="#FF5C00"/>
<stop offset="1" stop-color="#FF0000" stop-opacity="0.45"/>
</linearGradient>
<linearGradient id="paint9_linear_672_192" x1="207.787" y1="154.113" x2="207.787" y2="182.165" gradientUnits="userSpaceOnUse">
<stop stop-color="#CF9B16"/>
<stop offset="1" stop-color="#8A0900" stop-opacity="0.83"/>
</linearGradient>
<linearGradient id="paint10_linear_672_192" x1="98.3617" y1="347.359" x2="98.3617" y2="375.411" gradientUnits="userSpaceOnUse">
<stop stop-color="#CF9B16"/>
<stop offset="1" stop-color="#8A0900" stop-opacity="0.83"/>
</linearGradient>
<linearGradient id="paint11_linear_672_192" x1="352.38" y1="138.269" x2="352.38" y2="169.957" gradientUnits="userSpaceOnUse">
<stop stop-color="#CF9B16"/>
<stop offset="1" stop-color="#8A0900" stop-opacity="0.83"/>
</linearGradient>
<linearGradient id="paint12_linear_672_192" x1="78.8558" y1="78.6702" x2="123.428" y2="93.1197" gradientUnits="userSpaceOnUse">
<stop stop-color="#CF9B16"/>
<stop offset="1" stop-color="#8A0900" stop-opacity="0.83"/>
</linearGradient>
<linearGradient id="paint13_linear_672_192" x1="368.036" y1="284.935" x2="368.036" y2="325.281" gradientUnits="userSpaceOnUse">
<stop stop-color="#D68E02" stop-opacity="0.84"/>
<stop offset="1" stop-color="#C22301"/>
</linearGradient>
<linearGradient id="paint14_linear_672_192" x1="149.635" y1="193.073" x2="177.98" y2="202.262" gradientUnits="userSpaceOnUse">
<stop stop-color="#CF9B16"/>
<stop offset="1" stop-color="#8A0900" stop-opacity="0.83"/>
</linearGradient>
<linearGradient id="paint15_linear_672_192" x1="105.303" y1="136.104" x2="105.303" y2="173.68" gradientUnits="userSpaceOnUse">
<stop stop-color="#FF5C00"/>
<stop offset="1" stop-color="#FF0000" stop-opacity="0.45"/>
</linearGradient>
<linearGradient id="paint16_linear_672_192" x1="56.4127" y1="165.022" x2="56.4127" y2="196.277" gradientUnits="userSpaceOnUse">
<stop stop-color="#CF9B16"/>
<stop offset="1" stop-color="#8A0900" stop-opacity="0.83"/>
</linearGradient>
<linearGradient id="paint17_linear_672_192" x1="314.036" y1="11.9458" x2="314.036" y2="51.378" gradientUnits="userSpaceOnUse">
<stop stop-color="#DBFF00"/>
<stop offset="1" stop-color="#7F4108" stop-opacity="0.88"/>
</linearGradient>
<linearGradient id="paint18_linear_672_192" x1="341.169" y1="210.616" x2="373.477" y2="221.09" gradientUnits="userSpaceOnUse">
<stop stop-color="#CF9B16"/>
<stop offset="1" stop-color="#8A0900" stop-opacity="0.83"/>
</linearGradient>
<linearGradient id="paint19_linear_672_192" x1="287.485" y1="286.609" x2="318.151" y2="296.55" gradientUnits="userSpaceOnUse">
<stop stop-color="#CF9B16"/>
<stop offset="1" stop-color="#8A0900" stop-opacity="0.83"/>
</linearGradient>
<linearGradient id="paint20_linear_672_192" x1="235.937" y1="309.697" x2="235.937" y2="340.866" gradientUnits="userSpaceOnUse">
<stop stop-color="#DBFF00"/>
<stop offset="1" stop-color="#7F4108" stop-opacity="0.88"/>
</linearGradient>
<linearGradient id="paint21_linear_672_192" x1="298.708" y1="85.4546" x2="298.708" y2="120.779" gradientUnits="userSpaceOnUse">
<stop stop-color="#DBFF00"/>
<stop offset="1" stop-color="#7F4108" stop-opacity="0.88"/>
</linearGradient>
<linearGradient id="paint22_linear_672_192" x1="328.912" y1="326.784" x2="328.912" y2="356.364" gradientUnits="userSpaceOnUse">
<stop stop-color="#DBFF00"/>
<stop offset="1" stop-color="#7F4108" stop-opacity="0.88"/>
</linearGradient>
<linearGradient id="paint23_linear_672_192" x1="44.1476" y1="106.84" x2="44.1476" y2="144.991" gradientUnits="userSpaceOnUse">
<stop stop-color="#DBFF00"/>
<stop offset="1" stop-color="#7F4108" stop-opacity="0.88"/>
</linearGradient>
<linearGradient id="paint24_linear_672_192" x1="41.9222" y1="28.13" x2="67.3947" y2="68.6317" gradientUnits="userSpaceOnUse">
<stop stop-color="#D5D915"/>
<stop offset="1" stop-color="#A80303"/>
</linearGradient>
<linearGradient id="paint25_linear_672_192" x1="47.0457" y1="320.693" x2="47.0457" y2="345.253" gradientUnits="userSpaceOnUse">
<stop stop-color="#DBFF00"/>
<stop offset="1" stop-color="#7F4108" stop-opacity="0.88"/>
</linearGradient>
<linearGradient id="paint26_linear_672_192" x1="125.969" y1="24.4155" x2="125.969" y2="63.8095" gradientUnits="userSpaceOnUse">
<stop stop-color="#DBFF00"/>
<stop offset="1" stop-color="#7F4108" stop-opacity="0.88"/>
</linearGradient>
<linearGradient id="paint27_linear_672_192" x1="165.877" y1="72.8053" x2="139.288" y2="110.643" gradientUnits="userSpaceOnUse">
<stop stop-color="#D5D915"/>
<stop offset="1" stop-color="#A80303"/>
</linearGradient>
<linearGradient id="paint28_linear_672_192" x1="205.361" y1="0.0782453" x2="178.772" y2="37.9161" gradientUnits="userSpaceOnUse">
<stop stop-color="#D5D915"/>
<stop offset="1" stop-color="#A80303"/>
</linearGradient>
<linearGradient id="paint29_linear_672_192" x1="385.81" y1="21.7233" x2="359.222" y2="59.5611" gradientUnits="userSpaceOnUse">
<stop stop-color="#D5D915"/>
<stop offset="1" stop-color="#A80303"/>
</linearGradient>
<linearGradient id="paint30_linear_672_192" x1="47.043" y1="26.7332" x2="3.93301" y2="26.7332" gradientUnits="userSpaceOnUse">
<stop stop-color="#DBFF00"/>
<stop offset="1" stop-color="#7F4108" stop-opacity="0.88"/>
</linearGradient>
<linearGradient id="paint31_linear_672_192" x1="169.732" y1="368.418" x2="200.15" y2="368.418" gradientUnits="userSpaceOnUse">
<stop stop-color="#DBFF00"/>
<stop offset="1" stop-color="#7F4108" stop-opacity="0.88"/>
</linearGradient>
<linearGradient id="paint32_linear_672_192" x1="38.2437" y1="72.6406" x2="18.1661" y2="103.615" gradientUnits="userSpaceOnUse">
<stop stop-color="#FF5C00"/>
<stop offset="1" stop-color="#FF0000" stop-opacity="0.45"/>
</linearGradient>
<linearGradient id="paint33_linear_672_192" x1="201.813" y1="3.1167" x2="201.813" y2="400" gradientUnits="userSpaceOnUse">
<stop stop-color="#6C6C6C" stop-opacity="0.45"/>
<stop offset="1" stop-color="#D9D9D9" stop-opacity="0"/>
</linearGradient>
</defs>
</svg>
