<svg width="130" height="131" viewBox="0 0 130 131" fill="none" xmlns="http://www.w3.org/2000/svg">
<path d="M117.812 43.1798C125.734 37.8985 125.938 30.1798 125.938 30.1798C118.016 29.7735 118.219 21.6485 110.906 14.336C96.8906 0.117292 69.2656 4.78917 65 11.2892C60.7344 4.78917 33.1094 0.117292 19.0937 14.336C11.7812 21.8517 11.9844 29.9767 4.0625 30.1798C4.0625 30.1798 4.26562 37.8985 12.1875 43.1798C12.1875 43.1798 3.85937 55.1642 5.28125 71.8204C5.28125 71.8204 8.53125 63.6954 16.4531 62.2735C7.3125 69.9923 14.625 91.5235 7.92188 99.2423C7.92188 99.2423 17.2656 95.1798 21.125 92.5392C19.7031 104.524 22.9531 109.195 22.9531 115.086C31.2812 112.445 34.5312 100.055 34.5312 100.055C34.5312 115.289 39.8125 114.68 39.8125 122.805C39.8125 122.805 50.9844 117.32 54.8438 109.602C56.2656 116.711 61.5469 121.586 65.4062 126.055C69.2656 121.586 74.3438 116.711 75.9688 109.602C79.8281 117.117 91 122.805 91 122.805C91 114.68 96.2812 115.289 96.2812 100.055C96.2812 100.055 99.5312 112.242 107.859 115.086C107.859 109.195 111.109 104.524 109.688 92.5392C113.547 95.1798 122.891 99.2423 122.891 99.2423C116.188 91.3204 123.5 69.7892 114.359 62.2735C122.078 63.8985 125.531 71.8204 125.531 71.8204C126.141 54.961 117.812 43.1798 117.812 43.1798Z" fill="#2F2F2F"/>
<path d="M105.828 64.914C105.828 76.0858 94.6562 82.3827 94.6562 95.5858C94.6562 113.867 74.5469 98.6327 65.2031 98.6327C55.4531 98.6327 35.1406 113.664 35.1406 95.1796C35.1406 82.3827 24.375 75.8827 24.375 64.914C24.375 59.8358 29.8594 53.3358 30.0625 49.0702C30.4688 41.3515 25.3906 33.2265 25.7969 28.3515C27.4219 2.14835 65 40.7421 65 40.7421C65 40.7421 102.578 2.14835 104.406 28.7577C104.812 33.4296 99.7344 41.7577 99.9375 49.2733C100.344 53.3358 105.828 59.8358 105.828 64.914Z" fill="#E83B04"/>
<path d="M46.9219 19.0078C39 14.7422 33.7187 4.17969 33.7187 4.17969C33.7187 4.17969 24.9844 34.2422 44.6875 34.6484C51.1875 34.6484 56.2656 23.8828 46.9219 19.0078Z" fill="#E33700"/>
<path d="M83.0781 19.0078C91 14.7422 96.2812 4.17969 96.2812 4.17969C96.2812 4.17969 105.016 34.2422 85.1094 34.6484C78.8125 34.6484 73.7344 23.8828 83.0781 19.0078Z" fill="#E33700"/>
<path d="M30.875 64.914C24.7812 75.4765 37.1719 80.1483 37.1719 88.8827C37.1719 108.383 49.5625 94.3671 65 94.3671C80.4375 94.3671 92.8281 108.586 92.8281 88.8827C92.8281 79.9452 105.422 75.6796 99.125 64.914C93.6406 55.164 95.2656 76.6952 65 76.6952C34.5312 76.6952 36.5625 55.164 30.875 64.914Z" fill="#37006B"/>
<path d="M35.3438 66.7422C34.7344 66.7422 34.125 66.9453 33.5156 67.1484L33.1094 67.3516C21.125 73.8516 18.8906 75.0703 19.5 76.8984C19.7031 78.1172 21.3281 78.1172 22.1406 78.1172C24.5781 78.1172 29.25 77.3047 36.3594 76.2891C38.5938 75.8828 40.0156 74.0547 39.8125 71.6172C39.2031 69.1797 37.5781 66.7422 35.3438 66.7422Z" fill="white"/>
<path d="M96.8906 67.5547L96.4844 67.3516C95.875 66.9453 95.2656 66.9453 94.6562 66.9453C92.2187 66.9453 90.7969 69.3828 90.5937 71.6172C90.3906 74.0547 91.6094 75.8828 94.0469 76.2891C101.156 77.5078 105.828 78.1172 108.266 78.1172C109.078 78.1172 110.5 78.1172 110.703 76.8984C111.109 75.2734 108.875 74.0547 96.8906 67.5547Z" fill="white"/>
<path d="M85.3125 91.3204C81.25 93.7579 86.9375 100.664 90.1875 97.0079C105.219 79.5392 102.984 80.961 85.3125 91.3204Z" fill="white"/>
<path d="M39.8125 97.0079C43.0625 100.867 48.9531 93.7579 44.6875 91.3204C27.0156 80.961 24.9844 79.5392 39.8125 97.0079Z" fill="white"/>
<path d="M49.9687 78.9298C53.0156 76.2892 45.0937 72.8361 43.4687 76.2892C35.3437 91.9298 36.9687 90.5079 49.9687 78.9298Z" fill="white"/>
<path d="M86.5313 76.2892C84.7031 72.8361 76.9844 76.2892 80.0313 78.9298C93.0313 90.5079 94.6563 91.9298 86.5313 76.2892Z" fill="white"/>
<path d="M82.0625 93.9609C80.8438 94.7734 76.7813 94.7734 75.5625 93.9609C74.3438 93.1484 74.5469 89.8984 75.5625 88.8828C76.7813 87.8672 80.8438 87.8672 82.0625 88.8828C83.0781 89.6953 83.2813 93.1484 82.0625 93.9609Z" fill="white"/>
<path d="M54.4375 93.9609C53.2188 94.7734 49.1563 94.7734 47.9375 93.9609C46.7188 93.1484 46.9219 89.8984 47.9375 88.8828C49.1563 87.8672 53.2188 87.8672 54.4375 88.8828C55.4531 89.6953 55.6563 93.1484 54.4375 93.9609Z" fill="white"/>
<path d="M72.5156 92.1328C69.875 93.7578 60.3281 93.7578 57.4844 92.1328C56.0625 91.3203 57.4844 88.2734 58.7031 87.4609C61.3438 85.8359 68.6563 85.8359 71.5 87.4609C72.7188 88.2734 73.9375 91.3203 72.5156 92.1328Z" fill="#B76AFF"/>
<path d="M53.4219 77.1016C57.8906 78.9298 71.7031 79.1329 76.5781 77.1016C79.0156 76.6954 78.6094 79.7423 76.5781 81.1642C72.7188 85.0235 57.2813 85.0235 53.625 81.1642C51.3906 79.7423 51.1875 76.8985 53.4219 77.1016Z" fill="white"/>
<path d="M56.875 50.8984C56.875 60.6484 35.3438 60.6484 35.3438 50.8984C35.3438 37.6953 56.875 37.6953 56.875 50.8984Z" fill="white"/>
<path d="M50.5781 50.8984C50.5781 56.7891 41.6406 56.7891 41.6406 50.8984C41.6406 45.0078 50.5781 45.0078 50.5781 50.8984Z" fill="#37006B"/>
<path d="M94.6562 50.8984C94.6562 60.6484 73.125 60.6484 73.125 50.8984C73.125 37.6953 94.6562 37.6953 94.6562 50.8984Z" fill="white"/>
<path d="M88.3594 50.8984C88.3594 56.7891 79.4219 56.7891 79.4219 50.8984C79.4219 45.0078 88.3594 45.0078 88.3594 50.8984Z" fill="#37006B"/>
<path d="M23.7656 35.664C23.7656 35.664 35.5469 40.1328 45.5 47.6484C57.0781 56.3828 62.7656 50.4921 57.6875 44.3984C54.0313 39.5234 42.4531 31.8047 23.7656 35.664Z" fill="#37006B"/>
<path d="M72.3125 44.1953C67.2344 50.4922 73.125 56.1797 84.5 47.4453C94.4531 39.9297 106.234 35.461 106.234 35.461C87.5469 31.8047 75.9688 39.5235 72.3125 44.1953Z" fill="#37006B"/>
<path d="M72.9219 63.8984C72.3125 61.2578 70.4844 51.5078 70.4844 49.2734C70.8906 41.5547 59.1094 41.5547 59.5156 49.2734C59.7188 51.5078 57.6875 61.2578 57.0781 63.8984C50.375 63.2891 46.7188 71.8203 56.4688 71.8203C60.3281 71.8203 61.1406 75.2734 65 75.2734C68.8594 75.2734 69.6719 71.8203 73.5313 71.8203C83.0781 71.8203 79.4219 63.2891 72.9219 63.8984Z" fill="#FF5F2C"/>
</svg>
